<?xml version="1.0" encoding="UTF-8"?>
<!DOCTYPE svg PUBLIC "-//W3C//DTD SVG 1.1//EN" "http://www.w3.org/Graphics/SVG/1.1/DTD/svg11.dtd">
<svg xmlns="http://www.w3.org/2000/svg" version="1.1" width="512px" height="512px" style="shape-rendering:geometricPrecision; text-rendering:geometricPrecision; image-rendering:optimizeQuality; fill-rule:evenodd; clip-rule:evenodd" xmlns:xlink="http://www.w3.org/1999/xlink">
<g><path style="opacity:0.912" fill="#f5c94c" d="M 194.5,-0.5 C 195.167,-0.5 195.833,-0.5 196.5,-0.5C 198.352,5.68995 202.352,10.0233 208.5,12.5C 201.833,14.5 197.5,18.8333 195.5,25.5C 192.611,19.1107 187.945,14.6107 181.5,12C 188.318,10.3473 192.652,6.1806 194.5,-0.5 Z"/></g>
<g><path style="opacity:0.933" fill="#030101" d="M 304.5,7.5 C 307.978,7.18424 311.312,7.68424 314.5,9C 316.706,11.209 317.04,13.709 315.5,16.5C 306.682,17.3878 299.015,20.8878 292.5,27C 300.737,33.8944 306.57,42.3944 310,52.5C 310.965,56.7824 310.298,60.7824 308,64.5C 303.896,66.6055 300.396,69.4389 297.5,73C 279.761,75.2189 273.761,84.7189 279.5,101.5C 277.496,106.706 275.996,112.039 275,117.5C 273.363,119.81 271.196,121.31 268.5,122C 237.668,124.924 217.335,111.757 207.5,82.5C 208.036,80.0583 208.869,77.7249 210,75.5C 213.679,73.2432 216.845,70.4098 219.5,67C 223.654,65.1388 227.987,63.8055 232.5,63C 238.429,59.9726 241.429,55.1393 241.5,48.5C 241.252,44.7559 240.585,41.0892 239.5,37.5C 241.228,31.4546 243.061,25.4546 245,19.5C 246.419,18.5399 247.919,17.7065 249.5,17C 256.5,16.3333 263.5,16.3333 270.5,17C 274.901,17.9109 279.068,19.4109 283,21.5C 288.479,14.1812 295.645,9.51453 304.5,7.5 Z"/></g>
<g><path style="opacity:1" fill="#f9637c" d="M 252.5,26.5 C 275.897,24.8564 291.897,34.8564 300.5,56.5C 297.399,58.0984 294.732,60.2651 292.5,63C 271.558,67.5587 263.558,80.2253 268.5,101C 267.133,104.591 266.133,108.258 265.5,112C 242.754,113.794 227.087,104.128 218.5,83C 221.605,80.779 224.272,78.1123 226.5,75C 245.069,72.0947 253.569,61.2614 252,42.5C 251.399,40.8632 250.899,39.1966 250.5,37.5C 251.922,33.9664 252.589,30.2998 252.5,26.5 Z"/></g>
<g><path style="opacity:0.941" fill="#020101" d="M 110.5,59.5 C 124.093,56.961 133.593,61.961 139,74.5C 142.074,88.0772 137.24,97.5772 124.5,103C 110.899,106.037 101.399,101.204 96,88.5C 93.1828,74.8615 98.0161,65.1948 110.5,59.5 Z"/></g>
<g><path style="opacity:1" fill="#f9d18d" d="M 113.5,69.5 C 126.018,69.5049 130.851,75.5049 128,87.5C 120.966,95.4127 113.966,95.4127 107,87.5C 103.82,79.5325 105.987,73.5325 113.5,69.5 Z"/></g>
<g><path style="opacity:0.941" fill="#010100" d="M 370.5,89.5 C 390.093,88.9178 396.926,97.9178 391,116.5C 384.006,123.991 375.84,125.491 366.5,121C 359.009,114.006 357.509,105.84 362,96.5C 364.441,93.5464 367.275,91.2131 370.5,89.5 Z"/></g>
<g><path style="opacity:0.976" fill="#010100" d="M 378.5,511.5 C 296.833,511.5 215.167,511.5 133.5,511.5C 125.414,508.577 120.247,502.91 118,494.5C 109.267,411.508 100.601,328.508 92,245.5C 83.357,241.218 79.6904,234.218 81,224.5C 70.7544,219.097 68.0877,211.097 73,200.5C 75.1301,197.77 77.7968,195.77 81,194.5C 79.6409,185.049 83.1409,178.216 91.5,174C 103.5,173.667 115.5,173.333 127.5,173C 116.547,146.812 121.547,124.145 142.5,105C 156.764,94.3462 172.431,91.3462 189.5,96C 193.764,100.204 195.598,105.371 195,111.5C 198.495,114.751 201.495,118.418 204,122.5C 203.7,128.147 203.7,133.814 204,139.5C 205.779,143.612 208.612,146.778 212.5,149C 216.956,149.957 221.289,151.29 225.5,153C 229.047,156.49 230.214,160.657 229,165.5C 227.864,168.096 227.031,170.763 226.5,173.5C 228.833,173.5 231.167,173.5 233.5,173.5C 233.008,162.987 237.674,155.82 247.5,152C 250.956,151.82 254.289,151.153 257.5,150C 262.79,138.518 271.79,133.518 284.5,135C 290.853,124.994 299.853,121.327 311.5,124C 314.053,125.376 316.72,126.543 319.5,127.5C 328.736,122.436 338.069,122.269 347.5,127C 350.206,129.371 352.539,132.037 354.5,135C 367.21,133.518 376.21,138.518 381.5,150C 392.613,150.3 400.447,155.467 405,165.5C 405.497,168.146 405.664,170.813 405.5,173.5C 422.212,170.719 430.378,177.719 430,194.5C 440.246,199.903 442.912,207.903 438,218.5C 435.87,221.23 433.203,223.23 430,224.5C 431.31,234.218 427.643,241.218 419,245.5C 413.533,299.673 408.033,353.84 402.5,408C 403.201,410.38 404.367,412.547 406,414.5C 413.564,421.975 420.897,429.642 428,437.5C 431.56,444.857 429.393,448.023 421.5,447C 414.625,440.292 407.958,433.459 401.5,426.5C 398.803,449.139 396.303,471.805 394,494.5C 391.744,502.919 386.577,508.585 378.5,511.5 Z"/></g>
<g><path style="opacity:1" fill="#acda69" d="M 373.5,99.5 C 380.655,99.1527 383.821,102.486 383,109.5C 378.667,114.833 374.333,114.833 370,109.5C 369.333,107.5 369.333,105.5 370,103.5C 371.376,102.295 372.542,100.962 373.5,99.5 Z"/></g>
<g><path style="opacity:1" fill="#f3c64b" d="M 166.5,104.5 C 172.167,104.5 177.833,104.5 183.5,104.5C 183.601,113.364 186.934,120.698 193.5,126.5C 191.102,139.81 195.435,150.31 206.5,158C 210.253,159.989 214.253,160.822 218.5,160.5C 218.302,165.262 216.635,169.428 213.5,173C 188.594,173.827 163.761,173.661 139,172.5C 127.339,149.911 130.839,130.077 149.5,113C 154.731,109.102 160.397,106.269 166.5,104.5 Z"/></g>
<g><path style="opacity:0.918" fill="#fc647d" d="M 65.5,125.5 C 75.7455,124.57 78.7455,128.736 74.5,138C 65.3188,141.325 61.4855,138.158 63,128.5C 64.045,127.627 64.8783,126.627 65.5,125.5 Z"/></g>
<g><path style="opacity:1" fill="#56ad11" d="M 300.5,133.5 C 303.187,133.336 305.854,133.503 308.5,134C 315.833,140 323.167,140 330.5,134C 333.928,133.299 337.262,133.632 340.5,135C 343.167,139 346.5,142.333 350.5,145C 355.916,145.159 361.25,145.826 366.5,147C 369.68,150.898 372.68,154.898 375.5,159C 380.358,160.837 385.358,162.17 390.5,163C 394.192,165.55 395.858,169.05 395.5,173.5C 344.833,173.5 294.167,173.5 243.5,173.5C 243.142,169.05 244.808,165.55 248.5,163C 253.599,162.07 258.599,160.737 263.5,159C 266.257,154.821 269.257,150.821 272.5,147C 277.386,145.776 282.386,145.109 287.5,145C 288.833,144.333 290.167,143.667 291.5,143C 294.029,139.306 297.029,136.14 300.5,133.5 Z"/></g>
<g><path style="opacity:0.936" fill="#f5c84c" d="M 35.5,169.5 C 39.4562,178.451 46.1228,184.784 55.5,188.5C 45.9272,191.073 39.5939,197.073 36.5,206.5C 34.6574,201.805 31.9908,197.638 28.5,194C 25.107,191.637 21.4404,189.804 17.5,188.5C 26.8932,185.439 32.8932,179.105 35.5,169.5 Z"/></g>
<g><path style="opacity:1" fill="#ebf2fa" d="M 94.5,183.5 C 201.834,183.333 309.167,183.5 416.5,184C 419.231,186.897 420.231,190.397 419.5,194.5C 310.167,194.5 200.833,194.5 91.5,194.5C 90.8075,190.247 91.8075,186.581 94.5,183.5 Z"/></g>
<g><path style="opacity:1" fill="#d9e5f0" d="M 83.5,204.5 C 198.167,204.333 312.834,204.5 427.5,205C 430.167,208 430.167,211 427.5,214C 312.833,214.667 198.167,214.667 83.5,214C 80.8881,210.836 80.8881,207.669 83.5,204.5 Z"/></g>
<g><path style="opacity:1" fill="#ecf3fb" d="M 91.5,224.5 C 200.833,224.5 310.167,224.5 419.5,224.5C 420.231,228.603 419.231,232.103 416.5,235C 309.167,235.667 201.833,235.667 94.5,235C 91.7691,232.103 90.7691,228.603 91.5,224.5 Z"/></g>
<g><path style="opacity:1" fill="#86d046" d="M 102.5,245.5 C 148.5,245.5 194.5,245.5 240.5,245.5C 240.334,251.509 240.501,257.509 241,263.5C 241.9,268.737 244.734,272.571 249.5,275C 254.217,275.476 258.883,275.476 263.5,275C 306.368,320.866 348.868,367.033 391,413.5C 389.165,439.18 386.832,464.847 384,490.5C 383.285,496.215 380.118,499.715 374.5,501C 295.167,501.667 215.833,501.667 136.5,501C 133.898,500.117 131.731,498.617 130,496.5C 127.936,489.668 126.603,482.668 126,475.5C 118.165,398.824 110.332,322.157 102.5,245.5 Z"/></g>
<g><path style="opacity:1" fill="#85cf46" d="M 250.5,245.5 C 253.833,245.5 257.167,245.5 260.5,245.5C 260.666,251.509 260.499,257.509 260,263.5C 257,266.167 254,266.167 251,263.5C 250.501,257.509 250.334,251.509 250.5,245.5 Z"/></g>
<g><path style="opacity:1" fill="#86cf46" d="M 270.5,245.5 C 316.167,245.5 361.833,245.5 407.5,245.5C 403.547,297.272 398.547,348.938 392.5,400.5C 351.851,356.017 311.017,311.683 270,267.5C 270.348,260.212 270.515,252.879 270.5,245.5 Z"/></g>
<g><path style="opacity:0.954" fill="#87d147" d="M 456.5,393.5 C 464.664,392.667 467.998,396.334 466.5,404.5C 474.825,402.993 478.325,406.327 477,414.5C 474.103,417.231 470.603,418.231 466.5,417.5C 467.376,427.807 463.21,430.807 454,426.5C 452.851,423.607 452.351,420.607 452.5,417.5C 442.316,418.207 439.65,414.207 444.5,405.5C 447.084,404.607 449.751,404.274 452.5,404.5C 451.909,400.036 453.242,396.369 456.5,393.5 Z"/></g>
<g><path style="opacity:0.948" fill="#6fd6f9" d="M 429.5,477.5 C 435.391,476.43 438.724,478.763 439.5,484.5C 438.647,491.103 434.98,493.27 428.5,491C 423.226,486.059 423.56,481.559 429.5,477.5 Z"/></g>
</svg>
