<?xml version="1.0" encoding="UTF-8"?>
<!DOCTYPE svg PUBLIC "-//W3C//DTD SVG 1.1//EN" "http://www.w3.org/Graphics/SVG/1.1/DTD/svg11.dtd">
<svg xmlns="http://www.w3.org/2000/svg" version="1.1" width="512px" height="512px" style="shape-rendering:geometricPrecision; text-rendering:geometricPrecision; image-rendering:optimizeQuality; fill-rule:evenodd; clip-rule:evenodd" xmlns:xlink="http://www.w3.org/1999/xlink">
<g><path style="opacity:0.985" fill="#fed27f" d="M 256.5,-0.5 C 267.167,-0.5 277.833,-0.5 288.5,-0.5C 288.821,4.69463 288.487,9.69463 287.5,14.5C 284.806,12.4862 281.806,10.9862 278.5,10C 270.876,8.90432 263.209,8.23766 255.5,8C 256.444,5.28086 256.777,2.44753 256.5,-0.5 Z"/></g>
<g><path style="opacity:0.999" fill="#fec96f" d="M 288.5,-0.5 C 294.833,-0.5 301.167,-0.5 307.5,-0.5C 307.828,11.0123 307.495,22.3456 306.5,33.5C 300.535,28.0362 294.702,22.3696 289,16.5C 288.601,16.7284 288.435,17.0618 288.5,17.5C 287.833,17.5 287.5,17.1667 287.5,16.5C 287.5,15.8333 287.5,15.1667 287.5,14.5C 288.487,9.69463 288.821,4.69463 288.5,-0.5 Z"/></g>
<g><path style="opacity:0.962" fill="#ffe098" d="M 250.5,-0.5 C 252.5,-0.5 254.5,-0.5 256.5,-0.5C 256.777,2.44753 256.444,5.28086 255.5,8C 263.209,8.23766 270.876,8.90432 278.5,10C 281.806,10.9862 284.806,12.4862 287.5,14.5C 287.5,15.1667 287.5,15.8333 287.5,16.5C 274.117,13.9882 260.784,11.1549 247.5,8C 247.833,7.66667 248.167,7.33333 248.5,7C 241.8,6.714 235.133,6.214 228.5,5.5C 228.5,4.5 228.5,3.5 228.5,2.5C 235.933,1.29465 243.266,0.294645 250.5,-0.5 Z"/></g>
<g><path style="opacity:0.996" fill="#ffc161" d="M 307.5,-0.5 C 311.833,-0.5 316.167,-0.5 320.5,-0.5C 325.412,0.57634 328.578,3.57634 330,8.5C 330.732,23.6445 329.565,38.6445 326.5,53.5C 319.5,47.1667 312.833,40.5 306.5,33.5C 307.495,22.3456 307.828,11.0123 307.5,-0.5 Z"/></g>
<g><path style="opacity:0.998" fill="#fed380" d="M 228.5,2.5 C 228.5,3.5 228.5,4.5 228.5,5.5C 235.133,6.214 241.8,6.714 248.5,7C 248.167,7.33333 247.833,7.66667 247.5,8C 260.784,11.1549 274.117,13.9882 287.5,16.5C 287.5,17.1667 287.833,17.5 288.5,17.5C 287.79,24.1514 287.123,30.8181 286.5,37.5C 273.733,52.1689 261.066,67.0023 248.5,82C 240.335,79.7061 232.835,75.8728 226,70.5C 225.722,71.4158 225.222,72.0825 224.5,72.5C 224.523,70.0733 225.023,67.74 226,65.5C 230.581,67.8732 235.081,70.3732 239.5,73C 240.5,73.6667 241.5,73.6667 242.5,73C 256.5,56.3333 270.5,39.6667 284.5,23C 282.203,22.9822 279.869,23.1489 277.5,23.5C 277.611,22.8826 277.944,22.3826 278.5,22C 261.467,18.2272 244.467,14.3939 227.5,10.5C 226.083,7.65964 226.416,4.99298 228.5,2.5 Z"/></g>
<g><path style="opacity:0.979" fill="#ffe6a4" d="M 223.5,21.5 C 210.502,36.6678 197.668,52.0011 185,67.5C 184.184,68.8228 183.017,69.4894 181.5,69.5C 178.373,58.0314 176.207,46.3648 175,34.5C 174.112,29.3822 174.445,24.3822 176,19.5C 177.313,18.4272 178.813,17.7605 180.5,17.5C 194.747,19.7498 209.08,21.0831 223.5,21.5 Z"/></g>
<g><path style="opacity:0.987" fill="#ffc567" d="M 227.5,10.5 C 244.467,14.3939 261.467,18.2272 278.5,22C 277.944,22.3826 277.611,22.8826 277.5,23.5C 270.167,23.5 262.833,23.5 255.5,23.5C 250.105,23.7335 244.772,23.4002 239.5,22.5C 236.287,22.81 233.287,22.4767 230.5,21.5C 228.894,18.0139 227.894,14.3472 227.5,10.5 Z"/></g>
<g><path style="opacity:0.998" fill="#ffe29c" d="M 223.5,21.5 C 225.833,21.5 228.167,21.5 230.5,21.5C 233.287,22.4767 236.287,22.81 239.5,22.5C 239.611,23.1174 239.944,23.6174 240.5,24C 222.697,44.4784 205.031,64.9784 187.5,85.5C 185.324,80.3145 183.324,74.9811 181.5,69.5C 183.017,69.4894 184.184,68.8228 185,67.5C 197.668,52.0011 210.502,36.6678 223.5,21.5 Z"/></g>
<g><path style="opacity:0.997" fill="#ffdd93" d="M 239.5,22.5 C 244.772,23.4002 250.105,23.7335 255.5,23.5C 256.263,24.2679 257.263,24.7679 258.5,25C 249.375,36.4605 239.875,47.6272 230,58.5C 229.072,56.6652 227.906,56.3318 226.5,57.5C 225.147,60.7583 223.98,64.0917 223,67.5C 212.913,78.4138 203.413,89.7471 194.5,101.5C 191.655,96.4693 189.322,91.1359 187.5,85.5C 205.031,64.9784 222.697,44.4784 240.5,24C 239.944,23.6174 239.611,23.1174 239.5,22.5 Z"/></g>
<g><path style="opacity:0.998" fill="#fdbc4c" d="M 306.5,33.5 C 312.833,40.5 319.5,47.1667 326.5,53.5C 326.167,54.8333 325.833,56.1667 325.5,57.5C 324.842,58.3984 324.176,59.3984 323.5,60.5C 322.5,59.1667 321.5,59.1667 320.5,60.5C 319.833,59.5 319.167,58.5 318.5,57.5C 316.902,57.6097 315.235,57.943 313.5,58.5C 312.201,57.91 311.368,56.91 311,55.5C 307.95,55.5289 304.783,56.1956 301.5,57.5C 300.522,57.0233 299.689,56.3567 299,55.5C 296.154,56.7153 293.321,57.7153 290.5,58.5C 289.914,58.2907 289.414,57.9574 289,57.5C 287.653,59.4661 286.153,59.7994 284.5,58.5C 285.276,51.5112 285.943,44.5112 286.5,37.5C 287.123,30.8181 287.79,24.1514 288.5,17.5C 288.435,17.0618 288.601,16.7284 289,16.5C 294.702,22.3696 300.535,28.0362 306.5,33.5 Z"/></g>
<g><path style="opacity:1" fill="#fecd75" d="M 286.5,37.5 C 285.943,44.5112 285.276,51.5112 284.5,58.5C 283.137,62.6319 282.137,66.9652 281.5,71.5C 274.018,80.4293 266.518,89.4293 259,98.5C 258.667,97.8333 258.333,97.1667 258,96.5C 252.371,96.3916 247.038,94.0582 242,89.5C 241.667,89.8333 241.333,90.1667 241,90.5C 236.543,87.3094 231.71,83.9761 226.5,80.5C 225.534,82.396 225.201,84.396 225.5,86.5C 224.514,82.03 224.181,77.3633 224.5,72.5C 225.222,72.0825 225.722,71.4158 226,70.5C 232.835,75.8728 240.335,79.7061 248.5,82C 261.066,67.0023 273.733,52.1689 286.5,37.5 Z"/></g>
<g><path style="opacity:1" fill="#fec25a" d="M 325.5,57.5 C 323.262,74.3826 319.262,90.7159 313.5,106.5C 312.909,105.849 312.243,105.182 311.5,104.5C 312.629,102.471 312.129,102.137 310,103.5C 308.513,102.747 308.346,101.914 309.5,101C 307.33,99.4138 304.996,98.0804 302.5,97C 303.863,94.8707 303.529,94.3707 301.5,95.5C 300.201,94.91 299.368,93.91 299,92.5C 296.05,95.2047 293.717,94.8713 292,91.5C 290.286,92.9255 288.953,92.5922 288,90.5C 286.559,91.2598 285.059,91.9264 283.5,92.5C 281.259,92.1188 278.926,91.9521 276.5,92C 278.396,85.2507 280.062,78.4173 281.5,71.5C 282.137,66.9652 283.137,62.6319 284.5,58.5C 286.153,59.7994 287.653,59.4661 289,57.5C 289.414,57.9574 289.914,58.2907 290.5,58.5C 293.321,57.7153 296.154,56.7153 299,55.5C 299.689,56.3567 300.522,57.0233 301.5,57.5C 304.783,56.1956 307.95,55.5289 311,55.5C 311.368,56.91 312.201,57.91 313.5,58.5C 315.235,57.943 316.902,57.6097 318.5,57.5C 319.167,58.5 319.833,59.5 320.5,60.5C 321.5,59.1667 322.5,59.1667 323.5,60.5C 324.176,59.3984 324.842,58.3984 325.5,57.5 Z"/></g>
<g><path style="opacity:0.992" fill="#fed788" d="M 224.5,72.5 C 224.181,77.3633 224.514,82.03 225.5,86.5C 225.508,89.5448 225.841,92.5448 226.5,95.5C 227.619,102.879 228.952,110.212 230.5,117.5C 218.824,116.832 207.824,113.832 197.5,108.5C 196.227,106.287 195.227,103.954 194.5,101.5C 203.413,89.7471 212.913,78.4138 223,67.5C 223.98,64.0917 225.147,60.7583 226.5,57.5C 227.906,56.3318 229.072,56.6652 230,58.5C 239.875,47.6272 249.375,36.4605 258.5,25C 257.263,24.7679 256.263,24.2679 255.5,23.5C 262.833,23.5 270.167,23.5 277.5,23.5C 279.869,23.1489 282.203,22.9822 284.5,23C 270.5,39.6667 256.5,56.3333 242.5,73C 241.5,73.6667 240.5,73.6667 239.5,73C 235.081,70.3732 230.581,67.8732 226,65.5C 225.023,67.74 224.523,70.0733 224.5,72.5 Z"/></g>
<g><path style="opacity:1" fill="#fec868" d="M 281.5,71.5 C 280.062,78.4173 278.396,85.2507 276.5,92C 278.926,91.9521 281.259,92.1188 283.5,92.5C 285.059,91.9264 286.559,91.2598 288,90.5C 288.953,92.5922 290.286,92.9255 292,91.5C 293.717,94.8713 296.05,95.2047 299,92.5C 299.368,93.91 300.201,94.91 301.5,95.5C 303.529,94.3707 303.863,94.8707 302.5,97C 304.996,98.0804 307.33,99.4138 309.5,101C 308.346,101.914 308.513,102.747 310,103.5C 312.129,102.137 312.629,102.471 311.5,104.5C 312.243,105.182 312.909,105.849 313.5,106.5C 313.5,107.167 313.5,107.833 313.5,108.5C 296.901,115.268 279.568,118.602 261.5,118.5C 255.813,114.398 249.813,110.898 243.5,108C 237.774,103.815 232.108,99.6482 226.5,95.5C 225.841,92.5448 225.508,89.5448 225.5,86.5C 225.201,84.396 225.534,82.396 226.5,80.5C 231.71,83.9761 236.543,87.3094 241,90.5C 241.333,90.1667 241.667,89.8333 242,89.5C 247.038,94.0582 252.371,96.3916 258,96.5C 258.333,97.1667 258.667,97.8333 259,98.5C 266.518,89.4293 274.018,80.4293 281.5,71.5 Z"/></g>
<g><path style="opacity:1" fill="#fcc157" d="M 226.5,95.5 C 232.108,99.6482 237.774,103.815 243.5,108C 249.813,110.898 255.813,114.398 261.5,118.5C 251.128,118.76 240.794,118.427 230.5,117.5C 228.952,110.212 227.619,102.879 226.5,95.5 Z"/></g>
<g><path style="opacity:0.997" fill="#a7f8d5" d="M 197.5,108.5 C 207.824,113.832 218.824,116.832 230.5,117.5C 240.794,118.427 251.128,118.76 261.5,118.5C 279.568,118.602 296.901,115.268 313.5,108.5C 314.167,108.833 314.833,109.167 315.5,109.5C 315.611,110.117 315.944,110.617 316.5,111C 311.115,116.026 304.782,119.359 297.5,121C 270.587,127.851 243.587,128.184 216.5,122C 207.899,120.199 200.233,116.532 193.5,111C 194.056,110.617 194.389,110.117 194.5,109.5C 195.391,108.89 196.391,108.557 197.5,108.5 Z"/></g>
<g><path style="opacity:0.997" fill="#9af4d3" d="M 194.5,109.5 C 194.389,110.117 194.056,110.617 193.5,111C 200.233,116.532 207.899,120.199 216.5,122C 243.587,128.184 270.587,127.851 297.5,121C 304.782,119.359 311.115,116.026 316.5,111C 315.944,110.617 315.611,110.117 315.5,109.5C 320.751,110.638 323.084,113.972 322.5,119.5C 301.028,128.01 278.695,132.01 255.5,131.5C 232.013,131.808 209.346,127.808 187.5,119.5C 187.529,114.483 189.862,111.149 194.5,109.5 Z"/></g>
<g><path style="opacity:0.997" fill="#fed98c" d="M 188.5,123.5 C 190.404,123.738 191.738,124.738 192.5,126.5C 191.829,176.736 191.162,227.069 190.5,277.5C 180.747,267.788 169.081,261.454 155.5,258.5C 154.506,219.239 154.173,179.906 154.5,140.5C 165.554,134.306 176.888,128.639 188.5,123.5 Z"/></g>
<g><path style="opacity:1" fill="#fed686" d="M 192.5,126.5 C 193.71,126.932 194.71,127.599 195.5,128.5C 203.5,137.167 211.833,145.5 220.5,153.5C 223.167,156.5 225.833,159.5 228.5,162.5C 228.168,213.003 228.501,263.336 229.5,313.5C 229.737,314.791 229.404,315.791 228.5,316.5C 219.221,305.553 209.221,295.22 198.5,285.5C 198.167,285.5 197.833,285.5 197.5,285.5C 195.157,282.793 192.823,280.126 190.5,277.5C 191.162,227.069 191.829,176.736 192.5,126.5 Z"/></g>
<g><path style="opacity:1" fill="#fec865" d="M 320.5,124.5 C 327.41,129.904 333.91,135.904 340,142.5C 340.614,144.313 340.281,144.647 339,143.5C 335.545,144.894 332.045,146.228 328.5,147.5C 326.717,145.321 324.717,145.321 322.5,147.5C 320.223,147.015 318.056,147.681 316,149.5C 315.333,148.833 314.667,148.167 314,147.5C 313,148.5 312,149.5 311,150.5C 310.333,149.833 309.667,149.167 309,148.5C 306.832,150.455 304.498,151.121 302,150.5C 299.944,152.319 297.777,152.985 295.5,152.5C 293.283,154.679 291.283,154.679 289.5,152.5C 285.854,153.881 282.354,155.548 279,157.5C 276.667,157.5 274.333,157.5 272,157.5C 269.719,159.589 267.219,160.255 264.5,159.5C 262.714,161.021 260.881,161.354 259,160.5C 257.055,162.181 255.055,162.848 253,162.5C 250.944,164.319 248.777,164.985 246.5,164.5C 242.951,166.238 239.284,167.571 235.5,168.5C 233.167,166.5 230.833,164.5 228.5,162.5C 225.833,159.5 223.167,156.5 220.5,153.5C 221.802,152.193 223.135,152.193 224.5,153.5C 230.24,150.856 235.74,148.522 241,146.5C 241.414,146.957 241.914,147.291 242.5,147.5C 251.564,143.592 260.564,140.425 269.5,138C 268.207,137.51 266.873,137.343 265.5,137.5C 282.519,136.896 299.185,133.729 315.5,128C 317.323,127.003 318.99,125.836 320.5,124.5 Z"/></g>
<g><path style="opacity:1" fill="#7fe5c5" d="M 187.5,119.5 C 209.346,127.808 232.013,131.808 255.5,131.5C 278.695,132.01 301.028,128.01 322.5,119.5C 322.5,120.833 322.5,122.167 322.5,123.5C 321.508,123.328 320.842,123.662 320.5,124.5C 318.99,125.836 317.323,127.003 315.5,128C 299.185,133.729 282.519,136.896 265.5,137.5C 241.569,138.786 218.236,135.786 195.5,128.5C 194.71,127.599 193.71,126.932 192.5,126.5C 191.738,124.738 190.404,123.738 188.5,123.5C 188.567,122.041 188.234,120.708 187.5,119.5 Z"/></g>
<g><path style="opacity:0.994" fill="#feca6e" d="M 320.5,124.5 C 320.842,123.662 321.508,123.328 322.5,123.5C 342.116,131.835 360.45,142.168 377.5,154.5C 376.833,167.833 376.167,181.167 375.5,194.5C 371.202,190.704 367.036,186.704 363,182.5C 362.601,182.728 362.435,183.062 362.5,183.5C 361.31,181.645 359.977,179.812 358.5,178C 357.002,177.415 356.002,177.915 355.5,179.5C 352.965,184.719 349.965,189.719 346.5,194.5C 345.669,182.007 345.169,169.34 345,156.5C 342.888,158.922 340.888,158.922 339,156.5C 337.333,157.5 335.667,158.5 334,159.5C 333.333,158.833 332.667,158.167 332,157.5C 329.942,161.092 328.275,161.092 327,157.5C 325.333,158.5 323.667,159.5 322,160.5C 321.692,159.692 321.192,159.025 320.5,158.5C 315.167,160.167 309.833,161.833 304.5,163.5C 302.031,161.56 299.531,161.894 297,164.5C 294.318,164.955 291.485,164.955 288.5,164.5C 282.384,166.296 276.051,168.296 269.5,170.5C 268.158,169.098 267.324,169.431 267,171.5C 266.333,170.833 265.667,170.167 265,169.5C 262.944,171.319 260.777,171.985 258.5,171.5C 253.363,174.337 248.03,175.671 242.5,175.5C 239.833,173.5 237.5,171.167 235.5,168.5C 239.284,167.571 242.951,166.238 246.5,164.5C 248.777,164.985 250.944,164.319 253,162.5C 255.055,162.848 257.055,162.181 259,160.5C 260.881,161.354 262.714,161.021 264.5,159.5C 267.219,160.255 269.719,159.589 272,157.5C 274.333,157.5 276.667,157.5 279,157.5C 282.354,155.548 285.854,153.881 289.5,152.5C 291.283,154.679 293.283,154.679 295.5,152.5C 297.777,152.985 299.944,152.319 302,150.5C 304.498,151.121 306.832,150.455 309,148.5C 309.667,149.167 310.333,149.833 311,150.5C 312,149.5 313,148.5 314,147.5C 314.667,148.167 315.333,148.833 316,149.5C 318.056,147.681 320.223,147.015 322.5,147.5C 324.717,145.321 326.717,145.321 328.5,147.5C 332.045,146.228 335.545,144.894 339,143.5C 340.281,144.647 340.614,144.313 340,142.5C 333.91,135.904 327.41,129.904 320.5,124.5 Z"/></g>
<g><path style="opacity:1" fill="#fdc358" d="M 195.5,128.5 C 218.236,135.786 241.569,138.786 265.5,137.5C 266.873,137.343 268.207,137.51 269.5,138C 260.564,140.425 251.564,143.592 242.5,147.5C 241.914,147.291 241.414,146.957 241,146.5C 235.74,148.522 230.24,150.856 224.5,153.5C 223.135,152.193 221.802,152.193 220.5,153.5C 211.833,145.5 203.5,137.167 195.5,128.5 Z"/></g>
<g><path style="opacity:0.996" fill="#fedc92" d="M 154.5,140.5 C 154.173,179.906 154.506,219.239 155.5,258.5C 143.822,255.595 132.155,254.595 120.5,255.5C 117.455,282.037 123.455,306.37 138.5,328.5C 143.759,336.428 150.092,343.428 157.5,349.5C 157.833,350.5 158.5,351.167 159.5,351.5C 162.101,355.771 165.434,359.437 169.5,362.5C 158.679,363.495 147.679,363.828 136.5,363.5C 132.483,356.825 126.483,353.825 118.5,354.5C 118.5,291.833 118.5,229.167 118.5,166.5C 129.638,156.703 141.638,148.037 154.5,140.5 Z"/></g>
<g><path style="opacity:1" fill="#fecc73" d="M 346.5,194.5 C 336.971,207.083 325.304,217.083 311.5,224.5C 309.678,207.863 308.844,190.863 309,173.5C 307.247,174.627 305.413,175.627 303.5,176.5C 302.318,174.355 300.818,174.355 299,176.5C 298.612,175.572 297.945,174.905 297,174.5C 294.861,175.236 292.861,176.236 291,177.5C 288.667,177.5 286.333,177.5 284,177.5C 283.333,179.5 282,180.833 280,181.5C 278.796,180.529 278.296,179.529 278.5,178.5C 276.326,179.863 274.159,180.197 272,179.5C 270.247,180.627 268.413,181.627 266.5,182.5C 265.833,181.833 265.167,181.167 264.5,180.5C 260.281,181.399 255.947,182.733 251.5,184.5C 248.167,181.833 245.167,178.833 242.5,175.5C 248.03,175.671 253.363,174.337 258.5,171.5C 260.777,171.985 262.944,171.319 265,169.5C 265.667,170.167 266.333,170.833 267,171.5C 267.324,169.431 268.158,169.098 269.5,170.5C 276.051,168.296 282.384,166.296 288.5,164.5C 291.485,164.955 294.318,164.955 297,164.5C 299.531,161.894 302.031,161.56 304.5,163.5C 309.833,161.833 315.167,160.167 320.5,158.5C 321.192,159.025 321.692,159.692 322,160.5C 323.667,159.5 325.333,158.5 327,157.5C 328.275,161.092 329.942,161.092 332,157.5C 332.667,158.167 333.333,158.833 334,159.5C 335.667,158.5 337.333,157.5 339,156.5C 340.888,158.922 342.888,158.922 345,156.5C 345.169,169.34 345.669,182.007 346.5,194.5 Z"/></g>
<g><path style="opacity:0.987" fill="#ffc466" d="M 377.5,154.5 C 392.501,164.667 405.001,177.334 415,192.5C 428.527,214.221 439.36,237.221 447.5,261.5C 446.85,261.196 446.183,260.863 445.5,260.5C 444.682,263.107 444.182,265.774 444,268.5C 442.333,269.5 440.667,270.5 439,271.5C 438.383,272.449 438.549,273.282 439.5,274C 437.833,274.833 436.167,275.667 434.5,276.5C 432.783,261.079 426.783,247.746 416.5,236.5C 402.833,222.5 389.167,208.5 375.5,194.5C 376.167,181.167 376.833,167.833 377.5,154.5 Z"/></g>
<g><path style="opacity:1" fill="#fed380" d="M 228.5,162.5 C 230.833,164.5 233.167,166.5 235.5,168.5C 237.5,171.167 239.833,173.5 242.5,175.5C 245.167,178.833 248.167,181.833 251.5,184.5C 254.49,187.991 257.657,191.324 261,194.5C 263.003,192.199 264.837,192.199 266.5,194.5C 268.413,193.627 270.247,192.627 272,191.5C 272.5,209.497 272.667,227.497 272.5,245.5C 249.6,262.608 235.267,285.275 229.5,313.5C 228.501,263.336 228.168,213.003 228.5,162.5 Z"/></g>
<g><path style="opacity:0.998" fill="#ffdf97" d="M 118.5,166.5 C 118.5,229.167 118.5,291.833 118.5,354.5C 113.795,356.337 110.128,359.337 107.5,363.5C 103.5,363.5 99.5,363.5 95.5,363.5C 95.8323,307.331 95.499,251.331 94.5,195.5C 100.363,184.135 108.363,174.468 118.5,166.5 Z"/></g>
<g><path style="opacity:1" fill="#fecf79" d="M 311.5,224.5 C 305.123,228.689 298.456,232.355 291.5,235.5C 284.72,238.056 278.386,241.389 272.5,245.5C 272.667,227.497 272.5,209.497 272,191.5C 270.247,192.627 268.413,193.627 266.5,194.5C 264.837,192.199 263.003,192.199 261,194.5C 257.657,191.324 254.49,187.991 251.5,184.5C 255.947,182.733 260.281,181.399 264.5,180.5C 265.167,181.167 265.833,181.833 266.5,182.5C 268.413,181.627 270.247,180.627 272,179.5C 274.159,180.197 276.326,179.863 278.5,178.5C 278.296,179.529 278.796,180.529 280,181.5C 282,180.833 283.333,179.5 284,177.5C 286.333,177.5 288.667,177.5 291,177.5C 292.861,176.236 294.861,175.236 297,174.5C 297.945,174.905 298.612,175.572 299,176.5C 300.818,174.355 302.318,174.355 303.5,176.5C 305.413,175.627 307.247,174.627 309,173.5C 308.844,190.863 309.678,207.863 311.5,224.5 Z"/></g>
<g><path style="opacity:0.995" fill="#ffe29b" d="M 94.5,195.5 C 95.499,251.331 95.8323,307.331 95.5,363.5C 80.1667,363.5 64.8333,363.5 49.5,363.5C 47.3569,302.727 62.3569,246.727 94.5,195.5 Z"/></g>
<g><path style="opacity:1" fill="#85cd79" d="M 362.5,183.5 C 366.722,191.942 370.388,200.609 373.5,209.5C 368.772,211.827 363.439,214.161 357.5,216.5C 356.914,216.291 356.414,215.957 356,215.5C 351.76,218.063 347.926,220.397 344.5,222.5C 343.893,222.376 343.56,222.043 343.5,221.5C 350.144,208.237 354.144,194.237 355.5,179.5C 356.002,177.915 357.002,177.415 358.5,178C 359.977,179.812 361.31,181.645 362.5,183.5 Z"/></g>
<g><path style="opacity:1" fill="#fdbc4c" d="M 375.5,194.5 C 389.167,208.5 402.833,222.5 416.5,236.5C 413.531,237.899 410.698,240.232 408,243.5C 407.667,242.833 407.333,242.167 407,241.5C 405.333,243.167 403.667,244.833 402,246.5C 401.667,244.833 401.333,243.167 401,241.5C 399.333,243.167 397.667,244.833 396,246.5C 395.667,245.833 395.333,245.167 395,244.5C 392.253,247.754 389.086,250.42 385.5,252.5C 384.679,245.395 383.346,238.395 381.5,231.5C 379.401,223.862 376.734,216.529 373.5,209.5C 370.388,200.609 366.722,191.942 362.5,183.5C 362.435,183.062 362.601,182.728 363,182.5C 367.036,186.704 371.202,190.704 375.5,194.5 Z"/></g>
<g><path style="opacity:1" fill="#b6f3a2" d="M 355.5,179.5 C 354.144,194.237 350.144,208.237 343.5,221.5C 338.339,231.158 332.672,240.492 326.5,249.5C 319.572,258.435 312.238,267.102 304.5,275.5C 302.5,277.167 300.5,278.833 298.5,280.5C 298.278,277.924 296.945,277.09 294.5,278C 289.331,282.337 284.331,286.837 279.5,291.5C 278.876,291.083 278.543,290.416 278.5,289.5C 283.152,271.558 287.486,253.558 291.5,235.5C 298.456,232.355 305.123,228.689 311.5,224.5C 325.304,217.083 336.971,207.083 346.5,194.5C 349.965,189.719 352.965,184.719 355.5,179.5 Z"/></g>
<g><path style="opacity:1" fill="#93dc87" d="M 373.5,209.5 C 376.734,216.529 379.401,223.862 381.5,231.5C 379.72,232.755 377.887,232.755 376,231.5C 373.071,231.909 370.738,233.243 369,235.5C 368.692,234.692 368.192,234.025 367.5,233.5C 364.282,235.021 361.782,236.688 360,238.5C 359.692,237.692 359.192,237.025 358.5,236.5C 355.833,238.167 353.167,239.833 350.5,241.5C 350.167,240.833 349.833,240.167 349.5,239.5C 347.096,240.008 346.429,241.175 347.5,243C 341.24,244.955 334.406,247.455 327,250.5C 326.601,250.272 326.435,249.938 326.5,249.5C 332.672,240.492 338.339,231.158 343.5,221.5C 343.56,222.043 343.893,222.376 344.5,222.5C 347.926,220.397 351.76,218.063 356,215.5C 356.414,215.957 356.914,216.291 357.5,216.5C 363.439,214.161 368.772,211.827 373.5,209.5 Z"/></g>
<g><path style="opacity:1" fill="#9fe892" d="M 381.5,231.5 C 383.346,238.395 384.679,245.395 385.5,252.5C 390.336,288.824 382.169,321.824 361,351.5C 358.613,354.957 355.78,357.957 352.5,360.5C 351.903,360.265 351.57,359.765 351.5,359C 357.911,333.855 364.245,308.688 370.5,283.5C 370.167,282.833 369.833,282.167 369.5,281.5C 368.604,282.506 367.938,282.506 367.5,281.5C 368.544,279.232 368.711,276.899 368,274.5C 367.309,276.891 366.309,276.891 365,274.5C 364.043,276.709 362.876,276.543 361.5,274C 361.833,273.667 362.167,273.333 362.5,273C 361.552,272.517 360.552,272.351 359.5,272.5C 359.719,271.325 359.386,270.325 358.5,269.5C 357.167,270.833 355.833,270.833 354.5,269.5C 353.252,270.04 352.085,270.707 351,271.5C 350,270.167 349,268.833 348,267.5C 347.125,269.513 345.791,269.513 344,267.5C 342.84,269.797 341.84,269.464 341,266.5C 340,267.833 339,267.833 338,266.5C 337,267.5 336,268.5 335,269.5C 334.667,268.833 334.333,268.167 334,267.5C 332,268.833 330.333,270.5 329,272.5C 327.518,270.219 325.851,270.219 324,272.5C 322.984,271.366 322.317,271.699 322,273.5C 321.333,272.833 320.667,272.167 320,271.5C 319,272.5 318,273.5 317,274.5C 315.119,273.646 313.286,273.979 311.5,275.5C 309.017,275.316 306.684,275.316 304.5,275.5C 312.238,267.102 319.572,258.435 326.5,249.5C 326.435,249.938 326.601,250.272 327,250.5C 334.406,247.455 341.24,244.955 347.5,243C 346.429,241.175 347.096,240.008 349.5,239.5C 349.833,240.167 350.167,240.833 350.5,241.5C 353.167,239.833 355.833,238.167 358.5,236.5C 359.192,237.025 359.692,237.692 360,238.5C 361.782,236.688 364.282,235.021 367.5,233.5C 368.192,234.025 368.692,234.692 369,235.5C 370.738,233.243 373.071,231.909 376,231.5C 377.887,232.755 379.72,232.755 381.5,231.5 Z"/></g>
<g><path style="opacity:1" fill="#cefdb2" d="M 120.5,255.5 C 132.155,254.595 143.822,255.595 155.5,258.5C 169.081,261.454 180.747,267.788 190.5,277.5C 192.823,280.126 195.157,282.793 197.5,285.5C 189.654,286.947 181.988,289.114 174.5,292C 172.833,292.667 171.167,292.667 169.5,292C 156.724,275.057 140.39,262.89 120.5,255.5 Z"/></g>
<g><path style="opacity:1" fill="#c2f9aa" d="M 291.5,235.5 C 287.486,253.558 283.152,271.558 278.5,289.5C 278.543,290.416 278.876,291.083 279.5,291.5C 266.504,304.832 255.837,319.832 247.5,336.5C 243.508,344.826 240.342,353.492 238,362.5C 237.292,363.381 236.458,364.047 235.5,364.5C 233.089,364.863 231.589,363.863 231,361.5C 228.992,351.931 227.826,342.264 227.5,332.5C 227.687,327.155 228.02,321.822 228.5,316.5C 229.404,315.791 229.737,314.791 229.5,313.5C 235.267,285.275 249.6,262.608 272.5,245.5C 278.386,241.389 284.72,238.056 291.5,235.5 Z"/></g>
<g><path style="opacity:0.995" fill="#fec057" d="M 416.5,236.5 C 426.783,247.746 432.783,261.079 434.5,276.5C 436.167,275.667 437.833,274.833 439.5,274C 438.549,273.282 438.383,272.449 439,271.5C 440.667,270.5 442.333,269.5 444,268.5C 444.182,265.774 444.682,263.107 445.5,260.5C 446.183,260.863 446.85,261.196 447.5,261.5C 452.751,277.754 456.084,294.421 457.5,311.5C 453.608,312.444 450.942,314.777 449.5,318.5C 446.077,321.258 442.577,323.925 439,326.5C 438.487,328.521 437.32,330.021 435.5,331C 436.449,331.617 437.282,331.451 438,330.5C 438.749,331.635 438.583,332.635 437.5,333.5C 434.091,335.954 430.757,338.454 427.5,341C 426.833,342.333 426.167,343.667 425.5,345C 421.543,346.973 417.876,349.306 414.5,352C 413.929,353.205 413.262,354.372 412.5,355.5C 409.012,358.081 405.678,360.748 402.5,363.5C 396.5,363.5 390.5,363.5 384.5,363.5C 373.167,363.5 361.833,363.5 350.5,363.5C 351.167,362.5 351.833,361.5 352.5,360.5C 355.78,357.957 358.613,354.957 361,351.5C 382.169,321.824 390.336,288.824 385.5,252.5C 389.086,250.42 392.253,247.754 395,244.5C 395.333,245.167 395.667,245.833 396,246.5C 397.667,244.833 399.333,243.167 401,241.5C 401.333,243.167 401.667,244.833 402,246.5C 403.667,244.833 405.333,243.167 407,241.5C 407.333,242.167 407.667,242.833 408,243.5C 410.698,240.232 413.531,237.899 416.5,236.5 Z"/></g>
<g><path style="opacity:1" fill="#a5ec97" d="M 352.5,360.5 C 351.833,361.5 351.167,362.5 350.5,363.5C 342.744,370.927 334.41,377.593 325.5,383.5C 324.876,383.083 324.543,382.416 324.5,381.5C 331.825,352.538 338.658,323.538 345,294.5C 343.984,293.366 343.317,293.699 343,295.5C 342.821,293.576 342.654,291.909 342.5,290.5C 341.914,290.709 341.414,291.043 341,291.5C 339.009,289.095 336.676,288.428 334,289.5C 332.979,286.594 331.479,284.594 329.5,283.5C 329.167,284.167 328.833,284.833 328.5,285.5C 327.252,284.96 326.085,284.293 325,283.5C 324.333,286.167 323.667,286.167 323,283.5C 321.445,285.146 319.779,285.479 318,284.5C 317.667,285.167 317.333,285.833 317,286.5C 315.088,285.308 313.088,284.308 311,283.5C 310.667,284.167 310.333,284.833 310,285.5C 306.14,284.249 302.306,284.583 298.5,286.5C 297.575,285.643 296.908,284.643 296.5,283.5C 297.167,282.5 297.833,281.5 298.5,280.5C 300.5,278.833 302.5,277.167 304.5,275.5C 306.684,275.316 309.017,275.316 311.5,275.5C 313.286,273.979 315.119,273.646 317,274.5C 318,273.5 319,272.5 320,271.5C 320.667,272.167 321.333,272.833 322,273.5C 322.317,271.699 322.984,271.366 324,272.5C 325.851,270.219 327.518,270.219 329,272.5C 330.333,270.5 332,268.833 334,267.5C 334.333,268.167 334.667,268.833 335,269.5C 336,268.5 337,267.5 338,266.5C 339,267.833 340,267.833 341,266.5C 341.84,269.464 342.84,269.797 344,267.5C 345.791,269.513 347.125,269.513 348,267.5C 349,268.833 350,270.167 351,271.5C 352.085,270.707 353.252,270.04 354.5,269.5C 355.833,270.833 357.167,270.833 358.5,269.5C 359.386,270.325 359.719,271.325 359.5,272.5C 360.552,272.351 361.552,272.517 362.5,273C 362.167,273.333 361.833,273.667 361.5,274C 362.876,276.543 364.043,276.709 365,274.5C 366.309,276.891 367.309,276.891 368,274.5C 368.711,276.899 368.544,279.232 367.5,281.5C 367.938,282.506 368.604,282.506 369.5,281.5C 369.833,282.167 370.167,282.833 370.5,283.5C 364.245,308.688 357.911,333.855 351.5,359C 351.57,359.765 351.903,360.265 352.5,360.5 Z"/></g>
<g><path style="opacity:1" fill="#bdf5a7" d="M 120.5,255.5 C 140.39,262.89 156.724,275.057 169.5,292C 171.167,292.667 172.833,292.667 174.5,292C 181.988,289.114 189.654,286.947 197.5,285.5C 197.833,285.5 198.167,285.5 198.5,285.5C 202.878,291.589 206.211,298.255 208.5,305.5C 199.648,308.731 190.648,311.231 181.5,313C 179.007,309.469 176.84,305.635 175,301.5C 174.333,304.167 173.667,304.167 173,301.5C 172.667,303.167 172.333,304.833 172,306.5C 170.383,305.464 170.216,304.297 171.5,303C 170.258,299.643 169.424,299.81 169,303.5C 167.632,302.007 167.465,300.507 168.5,299C 166.3,296.766 164.467,294.266 163,291.5C 162.667,292.5 162.333,293.5 162,294.5C 161.16,291.536 160.16,291.203 159,293.5C 156.697,292.256 156.197,290.589 157.5,288.5C 156.609,287.41 155.609,287.41 154.5,288.5C 154.167,288 153.833,287.5 153.5,287C 154.419,282.401 154.086,282.401 152.5,287C 152.981,289.538 153.981,291.038 155.5,291.5C 154.811,293.353 153.478,294.519 151.5,295C 152.5,295.333 153.5,295.667 154.5,296C 154.943,297.518 154.276,298.685 152.5,299.5C 153.313,300.814 154.313,301.981 155.5,303C 154.167,303.667 152.833,304.333 151.5,305C 152.5,305.333 153.5,305.667 154.5,306C 153.167,306.667 151.833,307.333 150.5,308C 151.308,308.308 151.975,308.808 152.5,309.5C 148.864,311.207 148.864,312.374 152.5,313C 149.354,313.11 148.354,314.443 149.5,317C 147.725,318.439 145.725,319.439 143.5,320C 143.966,321.299 143.966,322.799 143.5,324.5C 142.5,324.5 141.5,324.5 140.5,324.5C 140.473,326.199 139.806,327.533 138.5,328.5C 123.455,306.37 117.455,282.037 120.5,255.5 Z"/></g>
<g><path style="opacity:1" fill="#abef9b" d="M 296.5,283.5 C 296.908,284.643 297.575,285.643 298.5,286.5C 302.306,284.583 306.14,284.249 310,285.5C 310.333,284.833 310.667,284.167 311,283.5C 313.088,284.308 315.088,285.308 317,286.5C 317.333,285.833 317.667,285.167 318,284.5C 319.779,285.479 321.445,285.146 323,283.5C 323.667,286.167 324.333,286.167 325,283.5C 326.085,284.293 327.252,284.96 328.5,285.5C 328.833,284.833 329.167,284.167 329.5,283.5C 331.479,284.594 332.979,286.594 334,289.5C 336.676,288.428 339.009,289.095 341,291.5C 341.414,291.043 341.914,290.709 342.5,290.5C 342.654,291.909 342.821,293.576 343,295.5C 343.317,293.699 343.984,293.366 345,294.5C 338.658,323.538 331.825,352.538 324.5,381.5C 324.543,382.416 324.876,383.083 325.5,383.5C 318.086,388.541 310.086,392.541 301.5,395.5C 300.503,395.53 299.836,395.03 299.5,394C 307.04,365.178 314.04,336.511 320.5,308C 320,307.5 319.5,307 319,306.5C 318.131,311.508 317.464,311.175 317,305.5C 316.667,306.167 316.333,306.833 316,307.5C 316.178,305.56 315.178,303.893 313,302.5C 312.333,305.167 311.667,305.167 311,302.5C 309.284,303.552 308.284,302.886 308,300.5C 307,301.5 306,302.5 305,303.5C 304.667,302.5 304.333,301.5 304,300.5C 302.853,301.458 301.853,301.125 301,299.5C 299.209,301.513 297.875,301.513 297,299.5C 295.149,301.781 293.482,301.781 292,299.5C 291.667,300.167 291.333,300.833 291,301.5C 290,299.833 289,298.167 288,296.5C 287.577,297.956 286.744,298.456 285.5,298C 286.252,297.329 286.586,296.496 286.5,295.5C 289.486,291.183 292.82,287.183 296.5,283.5 Z"/></g>
<g><path style="opacity:1" fill="#b1f2a0" d="M 286.5,295.5 C 286.586,296.496 286.252,297.329 285.5,298C 286.744,298.456 287.577,297.956 288,296.5C 289,298.167 290,299.833 291,301.5C 291.333,300.833 291.667,300.167 292,299.5C 293.482,301.781 295.149,301.781 297,299.5C 297.875,301.513 299.209,301.513 301,299.5C 301.853,301.125 302.853,301.458 304,300.5C 304.333,301.5 304.667,302.5 305,303.5C 306,302.5 307,301.5 308,300.5C 308.284,302.886 309.284,303.552 311,302.5C 311.667,305.167 312.333,305.167 313,302.5C 315.178,303.893 316.178,305.56 316,307.5C 316.333,306.833 316.667,306.167 317,305.5C 317.464,311.175 318.131,311.508 319,306.5C 319.5,307 320,307.5 320.5,308C 314.04,336.511 307.04,365.178 299.5,394C 299.836,395.03 300.503,395.53 301.5,395.5C 292.53,399.079 283.197,401.746 273.5,403.5C 272.876,403.083 272.543,402.416 272.5,401.5C 279.474,375.277 285.64,348.943 291,322.5C 290.667,322.833 290.333,323.167 290,323.5C 289.167,322.5 288.333,321.5 287.5,320.5C 283.261,319.548 279.095,319.548 275,320.5C 274.215,318.751 273.382,317.084 272.5,315.5C 276.687,308.446 281.353,301.779 286.5,295.5 Z"/></g>
<g><path style="opacity:1" fill="#fbbe4d" d="M 298.5,280.5 C 297.833,281.5 297.167,282.5 296.5,283.5C 292.82,287.183 289.486,291.183 286.5,295.5C 281.353,301.779 276.687,308.446 272.5,315.5C 266.993,324.512 261.993,333.846 257.5,343.5C 255.037,341.539 252.703,339.372 250.5,337C 249.552,336.517 248.552,336.351 247.5,336.5C 255.837,319.832 266.504,304.832 279.5,291.5C 284.331,286.837 289.331,282.337 294.5,278C 296.945,277.09 298.278,277.924 298.5,280.5 Z"/></g>
<g><path style="opacity:1" fill="#fbbe4e" d="M 198.5,285.5 C 209.221,295.22 219.221,305.553 228.5,316.5C 228.02,321.822 227.687,327.155 227.5,332.5C 223.441,336.565 219.107,340.232 214.5,343.5C 214.5,342.833 214.5,342.167 214.5,341.5C 214.437,332.432 213.604,323.432 212,314.5C 211.495,311.135 210.328,308.135 208.5,305.5C 206.211,298.255 202.878,291.589 198.5,285.5 Z"/></g>
<g><path style="opacity:1" fill="#b5f3a1" d="M 208.5,305.5 C 210.328,308.135 211.495,311.135 212,314.5C 213.604,323.432 214.437,332.432 214.5,341.5C 213.677,338.023 213.177,334.356 213,330.5C 207.077,332.649 201.077,334.649 195,336.5C 192.923,335.983 190.923,335.316 189,334.5C 186.891,335.035 186.391,336.035 187.5,337.5C 178.803,341.383 169.47,344.716 159.5,347.5C 158.287,347.747 157.62,348.414 157.5,349.5C 150.092,343.428 143.759,336.428 138.5,328.5C 139.806,327.533 140.473,326.199 140.5,324.5C 141.5,324.5 142.5,324.5 143.5,324.5C 143.966,322.799 143.966,321.299 143.5,320C 145.725,319.439 147.725,318.439 149.5,317C 148.354,314.443 149.354,313.11 152.5,313C 148.864,312.374 148.864,311.207 152.5,309.5C 151.975,308.808 151.308,308.308 150.5,308C 151.833,307.333 153.167,306.667 154.5,306C 153.5,305.667 152.5,305.333 151.5,305C 152.833,304.333 154.167,303.667 155.5,303C 154.313,301.981 153.313,300.814 152.5,299.5C 154.276,298.685 154.943,297.518 154.5,296C 153.5,295.667 152.5,295.333 151.5,295C 153.478,294.519 154.811,293.353 155.5,291.5C 153.981,291.038 152.981,289.538 152.5,287C 154.086,282.401 154.419,282.401 153.5,287C 153.833,287.5 154.167,288 154.5,288.5C 155.609,287.41 156.609,287.41 157.5,288.5C 156.197,290.589 156.697,292.256 159,293.5C 160.16,291.203 161.16,291.536 162,294.5C 162.333,293.5 162.667,292.5 163,291.5C 164.467,294.266 166.3,296.766 168.5,299C 167.465,300.507 167.632,302.007 169,303.5C 169.424,299.81 170.258,299.643 171.5,303C 170.216,304.297 170.383,305.464 172,306.5C 172.333,304.833 172.667,303.167 173,301.5C 173.667,304.167 174.333,304.167 175,301.5C 176.84,305.635 179.007,309.469 181.5,313C 190.648,311.231 199.648,308.731 208.5,305.5 Z"/></g>
<g><path style="opacity:0.997" fill="#febb4d" d="M 457.5,311.5 C 459.496,329.442 460.83,347.442 461.5,365.5C 460.833,365.5 460.5,365.167 460.5,364.5C 451.682,363.507 442.682,363.173 433.5,363.5C 425.833,363.5 418.167,363.5 410.5,363.5C 407.833,363.5 405.167,363.5 402.5,363.5C 405.678,360.748 409.012,358.081 412.5,355.5C 413.262,354.372 413.929,353.205 414.5,352C 417.876,349.306 421.543,346.973 425.5,345C 426.167,343.667 426.833,342.333 427.5,341C 430.757,338.454 434.091,335.954 437.5,333.5C 438.583,332.635 438.749,331.635 438,330.5C 437.282,331.451 436.449,331.617 435.5,331C 437.32,330.021 438.487,328.521 439,326.5C 442.577,323.925 446.077,321.258 449.5,318.5C 450.942,314.777 453.608,312.444 457.5,311.5 Z"/></g>
<g><path style="opacity:1" fill="#baf4a4" d="M 272.5,315.5 C 273.382,317.084 274.215,318.751 275,320.5C 279.095,319.548 283.261,319.548 287.5,320.5C 288.333,321.5 289.167,322.5 290,323.5C 290.333,323.167 290.667,322.833 291,322.5C 285.64,348.943 279.474,375.277 272.5,401.5C 272.543,402.416 272.876,403.083 273.5,403.5C 270.527,405.806 267.86,408.473 265.5,411.5C 264.108,413.273 262.941,415.273 262,417.5C 261.501,423.157 261.334,428.824 261.5,434.5C 263.588,445.081 259.588,449.081 249.5,446.5C 249.158,445.662 248.492,445.328 247.5,445.5C 244.334,443.846 242.667,441.179 242.5,437.5C 242.802,434.941 242.468,432.607 241.5,430.5C 240.99,412.604 242.656,394.937 246.5,377.5C 249.368,365.897 253.034,354.564 257.5,343.5C 261.993,333.846 266.993,324.512 272.5,315.5 Z"/></g>
<g><path style="opacity:1" fill="#abef9a" d="M 214.5,341.5 C 214.5,342.167 214.5,342.833 214.5,343.5C 215.15,345.435 215.483,347.435 215.5,349.5C 214.844,348.722 214.011,348.056 213,347.5C 199.263,351.468 185.763,355.802 172.5,360.5C 167.891,357.89 163.558,354.89 159.5,351.5C 158.5,351.167 157.833,350.5 157.5,349.5C 157.62,348.414 158.287,347.747 159.5,347.5C 169.47,344.716 178.803,341.383 187.5,337.5C 186.391,336.035 186.891,335.035 189,334.5C 190.923,335.316 192.923,335.983 195,336.5C 201.077,334.649 207.077,332.649 213,330.5C 213.177,334.356 213.677,338.023 214.5,341.5 Z"/></g>
<g><path style="opacity:1" fill="#fbbb43" d="M 247.5,336.5 C 248.552,336.351 249.552,336.517 250.5,337C 252.703,339.372 255.037,341.539 257.5,343.5C 253.034,354.564 249.368,365.897 246.5,377.5C 242.369,373.87 238.369,370.037 234.5,366C 235.056,365.617 235.389,365.117 235.5,364.5C 236.458,364.047 237.292,363.381 238,362.5C 240.342,353.492 243.508,344.826 247.5,336.5 Z"/></g>
<g><path style="opacity:1" fill="#ffb92e" d="M 118.5,354.5 C 126.483,353.825 132.483,356.825 136.5,363.5C 139.982,371.721 138.315,378.721 131.5,384.5C 119.33,390.499 110.83,387.166 106,374.5C 105.112,370.598 105.612,366.931 107.5,363.5C 110.128,359.337 113.795,356.337 118.5,354.5 Z"/></g>
<g><path style="opacity:1" fill="#a2ea93" d="M 215.5,349.5 C 216.653,357.599 218.32,365.599 220.5,373.5C 220.471,375.029 219.804,376.196 218.5,377C 201.961,374.986 186.628,369.486 172.5,360.5C 185.763,355.802 199.263,351.468 213,347.5C 214.011,348.056 214.844,348.722 215.5,349.5 Z"/></g>
<g><path style="opacity:1" fill="#fdc04d" d="M 350.5,363.5 C 361.833,363.5 373.167,363.5 384.5,363.5C 378.347,364.328 372.013,364.828 365.5,365C 362.842,367.386 363.175,369.386 366.5,371C 365.33,375.173 363.496,379.007 361,382.5C 360.346,383.696 359.846,383.696 359.5,382.5C 360.326,381.549 360.492,380.549 360,379.5C 354.636,386.696 348.136,392.696 340.5,397.5C 339.866,399.567 338.866,401.4 337.5,403C 335.336,403.914 333.336,405.081 331.5,406.5C 330.914,406.291 330.414,405.957 330,405.5C 327.932,407.562 325.432,408.728 322.5,409C 320.86,410.395 319.36,411.895 318,413.5C 316.594,412.332 315.428,412.665 314.5,414.5C 314.089,413.738 313.923,412.738 314,411.5C 309.801,414.359 305.301,416.192 300.5,417C 302.762,416.299 303.762,415.132 303.5,413.5C 301.742,414.128 300.242,415.128 299,416.5C 298.667,415.833 298.333,415.167 298,414.5C 296.488,416.957 295.154,416.957 294,414.5C 292.488,415.257 291.154,416.257 290,417.5C 287.315,416.42 284.315,416.42 281,417.5C 280.5,417.333 280,417.167 279.5,417C 280.743,415.846 281.743,414.512 282.5,413C 280.776,412.552 280.109,411.718 280.5,410.5C 278.833,411.833 277.167,413.167 275.5,414.5C 273.556,413.811 271.556,413.311 269.5,413C 271.256,412.798 272.922,412.298 274.5,411.5C 273.086,410.535 272.253,409.535 272,408.5C 270.14,410.201 267.973,411.201 265.5,411.5C 267.86,408.473 270.527,405.806 273.5,403.5C 283.197,401.746 292.53,399.079 301.5,395.5C 310.086,392.541 318.086,388.541 325.5,383.5C 334.41,377.593 342.744,370.927 350.5,363.5 Z"/></g>
<g><path style="opacity:1" fill="#febe47" d="M 384.5,363.5 C 390.5,363.5 396.5,363.5 402.5,363.5C 405.167,363.5 407.833,363.5 410.5,363.5C 405.221,363.893 400.054,364.893 395,366.5C 394.577,365.044 393.744,364.544 392.5,365C 392.957,365.414 393.291,365.914 393.5,366.5C 392.258,368.79 390.592,370.623 388.5,372C 389.406,373.699 389.739,375.533 389.5,377.5C 388.07,377.421 386.736,377.754 385.5,378.5C 384.509,380.323 383.176,381.823 381.5,383C 382.451,383.718 382.617,384.551 382,385.5C 381,385.5 380,385.5 379,385.5C 370.216,397.277 359.05,406.11 345.5,412C 347.795,412.984 347.461,413.817 344.5,414.5C 343.914,414.291 343.414,413.957 343,413.5C 339.102,416.68 335.102,419.68 331,422.5C 329.796,421.529 329.296,420.529 329.5,419.5C 327.016,421.483 324.683,423.65 322.5,426C 317.559,426.631 312.559,427.965 307.5,430C 308.416,430.278 309.082,430.778 309.5,431.5C 293.552,433.199 277.552,434.199 261.5,434.5C 261.334,428.824 261.501,423.157 262,417.5C 262.941,415.273 264.108,413.273 265.5,411.5C 267.973,411.201 270.14,410.201 272,408.5C 272.253,409.535 273.086,410.535 274.5,411.5C 272.922,412.298 271.256,412.798 269.5,413C 271.556,413.311 273.556,413.811 275.5,414.5C 277.167,413.167 278.833,411.833 280.5,410.5C 280.109,411.718 280.776,412.552 282.5,413C 281.743,414.512 280.743,415.846 279.5,417C 280,417.167 280.5,417.333 281,417.5C 284.315,416.42 287.315,416.42 290,417.5C 291.154,416.257 292.488,415.257 294,414.5C 295.154,416.957 296.488,416.957 298,414.5C 298.333,415.167 298.667,415.833 299,416.5C 300.242,415.128 301.742,414.128 303.5,413.5C 303.762,415.132 302.762,416.299 300.5,417C 305.301,416.192 309.801,414.359 314,411.5C 313.923,412.738 314.089,413.738 314.5,414.5C 315.428,412.665 316.594,412.332 318,413.5C 319.36,411.895 320.86,410.395 322.5,409C 325.432,408.728 327.932,407.562 330,405.5C 330.414,405.957 330.914,406.291 331.5,406.5C 333.336,405.081 335.336,403.914 337.5,403C 338.866,401.4 339.866,399.567 340.5,397.5C 348.136,392.696 354.636,386.696 360,379.5C 360.492,380.549 360.326,381.549 359.5,382.5C 359.846,383.696 360.346,383.696 361,382.5C 363.496,379.007 365.33,375.173 366.5,371C 363.175,369.386 362.842,367.386 365.5,365C 372.013,364.828 378.347,364.328 384.5,363.5 Z"/></g>
<g><path style="opacity:1" fill="#febb41" d="M 410.5,363.5 C 418.167,363.5 425.833,363.5 433.5,363.5C 428.651,364.166 423.651,364.833 418.5,365.5C 416.778,368.247 415.611,371.247 415,374.5C 414.667,372.833 414.333,371.167 414,369.5C 411.194,374.856 408.028,380.022 404.5,385C 405.167,385.333 405.833,385.667 406.5,386C 402.817,388.685 399.817,392.018 397.5,396C 396.354,396.645 395.354,397.478 394.5,398.5C 394.167,397.833 393.833,397.167 393.5,396.5C 389.802,399.342 386.135,402.176 382.5,405C 382.645,405.772 382.978,406.439 383.5,407C 381.919,407.707 380.419,408.54 379,409.5C 378.667,409.167 378.333,408.833 378,408.5C 371.257,414.787 363.424,419.62 354.5,423C 355.167,423.333 355.833,423.667 356.5,424C 355.244,424.417 354.577,425.25 354.5,426.5C 339.572,428.823 324.572,430.49 309.5,431.5C 309.082,430.778 308.416,430.278 307.5,430C 312.559,427.965 317.559,426.631 322.5,426C 324.683,423.65 327.016,421.483 329.5,419.5C 329.296,420.529 329.796,421.529 331,422.5C 335.102,419.68 339.102,416.68 343,413.5C 343.414,413.957 343.914,414.291 344.5,414.5C 347.461,413.817 347.795,412.984 345.5,412C 359.05,406.11 370.216,397.277 379,385.5C 380,385.5 381,385.5 382,385.5C 382.617,384.551 382.451,383.718 381.5,383C 383.176,381.823 384.509,380.323 385.5,378.5C 386.736,377.754 388.07,377.421 389.5,377.5C 389.739,375.533 389.406,373.699 388.5,372C 390.592,370.623 392.258,368.79 393.5,366.5C 393.291,365.914 392.957,365.414 392.5,365C 393.744,364.544 394.577,365.044 395,366.5C 400.054,364.893 405.221,363.893 410.5,363.5 Z"/></g>
<g><path style="opacity:1" fill="#feb83b" d="M 433.5,363.5 C 442.682,363.173 451.682,363.507 460.5,364.5C 455.786,364.173 451.12,364.507 446.5,365.5C 445.045,369.518 443.545,373.518 442,377.5C 441.667,375.5 441.333,373.5 441,371.5C 439.438,375.878 437.272,379.878 434.5,383.5C 426.619,390.152 418.619,397.652 410.5,406C 405.833,409 401.167,412 396.5,415C 395.809,416.067 395.309,417.234 395,418.5C 394,418.5 393,418.5 392,418.5C 391.472,419.816 391.972,420.483 393.5,420.5C 393.5,420.833 393.5,421.167 393.5,421.5C 380.404,422.762 367.404,424.428 354.5,426.5C 354.577,425.25 355.244,424.417 356.5,424C 355.833,423.667 355.167,423.333 354.5,423C 363.424,419.62 371.257,414.787 378,408.5C 378.333,408.833 378.667,409.167 379,409.5C 380.419,408.54 381.919,407.707 383.5,407C 382.978,406.439 382.645,405.772 382.5,405C 386.135,402.176 389.802,399.342 393.5,396.5C 393.833,397.167 394.167,397.833 394.5,398.5C 395.354,397.478 396.354,396.645 397.5,396C 399.817,392.018 402.817,388.685 406.5,386C 405.833,385.667 405.167,385.333 404.5,385C 408.028,380.022 411.194,374.856 414,369.5C 414.333,371.167 414.667,372.833 415,374.5C 415.611,371.247 416.778,368.247 418.5,365.5C 423.651,364.833 428.651,364.166 433.5,363.5 Z"/></g>
<g><path style="opacity:1" fill="#feca60" d="M 217.5,411.5 C 219.917,413.411 222.25,415.578 224.5,418C 223.24,419.113 222.073,419.28 221,418.5C 220.646,420.807 219.646,421.141 218,419.5C 209.617,422.426 201.117,423.76 192.5,423.5C 185.866,426.406 178.866,427.906 171.5,428C 194.723,431.399 218.056,433.566 241.5,434.5C 241.5,433.167 241.5,431.833 241.5,430.5C 242.468,432.607 242.802,434.941 242.5,437.5C 238.516,436.942 234.516,436.609 230.5,436.5C 229.692,436.808 229.025,437.308 228.5,438C 219.5,438.5 210.5,439 201.5,439.5C 198.248,439.479 195.081,439.146 192,438.5C 190.915,439.293 189.748,439.96 188.5,440.5C 188.511,439.559 188.011,438.892 187,438.5C 184.13,438.693 181.296,439.026 178.5,439.5C 171.027,438.625 163.527,437.625 156,436.5C 154.634,436.706 153.301,437.04 152,437.5C 150.989,437.108 150.489,436.441 150.5,435.5C 149.522,435.977 148.689,436.643 148,437.5C 140.437,435.813 132.937,433.813 125.5,431.5C 123.557,433.526 121.391,433.526 119,431.5C 118.667,431.833 118.333,432.167 118,432.5C 106.704,428.186 95.8704,424.353 85.5,421C 79.88,417.297 74.38,414.131 69,411.5C 68.6667,411.833 68.3333,412.167 68,412.5C 64.0628,408.321 60.0628,404.988 56,402.5C 54.6914,400.109 53.6914,400.109 53,402.5C 50.9565,400.792 49.2899,398.792 48,396.5C 47.7216,397.416 47.2216,398.082 46.5,398.5C 47.7633,390.534 48.7633,382.534 49.5,374.5C 50.4794,371.375 50.8128,368.042 50.5,364.5C 55.1667,364.5 59.8333,364.5 64.5,364.5C 61.1287,381.755 66.6287,395.422 81,405.5C 80.3829,403.905 80.7163,402.572 82,401.5C 84.5366,404.372 87.3699,406.872 90.5,409C 97.375,411.404 104.208,414.571 111,418.5C 111.333,417.5 111.667,416.5 112,415.5C 118.607,419.356 125.107,421.19 131.5,421C 129.405,420.444 129.238,419.944 131,419.5C 133.084,419.669 135.251,419.669 137.5,419.5C 140.257,421.615 142.757,421.615 145,419.5C 147.243,420.371 149.243,420.371 151,419.5C 151.667,420.167 152.333,420.833 153,421.5C 154.438,420.282 156.105,419.615 158,419.5C 160.621,419.701 163.288,420.034 166,420.5C 166.915,419.672 167.581,418.672 168,417.5C 170.865,419.471 173.865,420.137 177,419.5C 178.667,418.5 180.333,417.5 182,416.5C 184.507,417.067 187.007,417.4 189.5,417.5C 190.611,416.389 191.945,415.722 193.5,415.5C 196.992,415.341 200.492,415.341 204,415.5C 208.476,414.063 212.976,412.73 217.5,411.5 Z"/></g>
<g><path style="opacity:1" fill="#fecd68" d="M 49.5,363.5 C 64.8333,363.5 80.1667,363.5 95.5,363.5C 99.5,363.5 103.5,363.5 107.5,363.5C 105.612,366.931 105.112,370.598 106,374.5C 110.83,387.166 119.33,390.499 131.5,384.5C 132.298,387.489 133.798,390.155 136,392.5C 136.333,390.833 136.667,389.167 137,387.5C 138.076,390.079 139.909,391.746 142.5,392.5C 136.573,399.707 137.573,405.874 145.5,411C 154.697,412.636 159.697,408.802 160.5,399.5C 165.871,398.561 171.205,398.561 176.5,399.5C 178.595,397.411 180.428,397.411 182,399.5C 182.741,398.359 183.575,398.359 184.5,399.5C 186.816,398.068 189.316,397.068 192,396.5C 193.566,395.939 194.899,396.606 196,398.5C 196.368,397.09 197.201,396.09 198.5,395.5C 199.995,396.705 201.328,396.705 202.5,395.5C 208.177,400.178 213.177,405.511 217.5,411.5C 212.976,412.73 208.476,414.063 204,415.5C 200.492,415.341 196.992,415.341 193.5,415.5C 191.945,415.722 190.611,416.389 189.5,417.5C 187.007,417.4 184.507,417.067 182,416.5C 180.333,417.5 178.667,418.5 177,419.5C 173.865,420.137 170.865,419.471 168,417.5C 167.581,418.672 166.915,419.672 166,420.5C 163.288,420.034 160.621,419.701 158,419.5C 156.105,419.615 154.438,420.282 153,421.5C 152.333,420.833 151.667,420.167 151,419.5C 149.243,420.371 147.243,420.371 145,419.5C 142.757,421.615 140.257,421.615 137.5,419.5C 135.251,419.669 133.084,419.669 131,419.5C 129.238,419.944 129.405,420.444 131.5,421C 125.107,421.19 118.607,419.356 112,415.5C 111.667,416.5 111.333,417.5 111,418.5C 104.208,414.571 97.375,411.404 90.5,409C 87.3699,406.872 84.5366,404.372 82,401.5C 80.7163,402.572 80.3829,403.905 81,405.5C 66.6287,395.422 61.1287,381.755 64.5,364.5C 59.8333,364.5 55.1667,364.5 50.5,364.5C 50.8128,368.042 50.4794,371.375 49.5,374.5C 49.5,370.833 49.5,367.167 49.5,363.5 Z"/></g>
<g><path style="opacity:1" fill="#ffd174" d="M 169.5,362.5 C 180.349,373.736 191.349,384.736 202.5,395.5C 201.328,396.705 199.995,396.705 198.5,395.5C 197.201,396.09 196.368,397.09 196,398.5C 194.899,396.606 193.566,395.939 192,396.5C 189.316,397.068 186.816,398.068 184.5,399.5C 183.575,398.359 182.741,398.359 182,399.5C 180.428,397.411 178.595,397.411 176.5,399.5C 171.205,398.561 165.871,398.561 160.5,399.5C 157.119,390.491 151.119,388.157 142.5,392.5C 139.909,391.746 138.076,390.079 137,387.5C 136.667,389.167 136.333,390.833 136,392.5C 133.798,390.155 132.298,387.489 131.5,384.5C 138.315,378.721 139.982,371.721 136.5,363.5C 147.679,363.828 158.679,363.495 169.5,362.5 Z"/></g>
<g><path style="opacity:1" fill="#fdb635" d="M 460.5,364.5 C 460.5,365.167 460.833,365.5 461.5,365.5C 461.712,379.282 463.045,392.949 465.5,406.5C 465.389,407.117 465.056,407.617 464.5,408C 453.27,410.06 442.27,412.56 431.5,415.5C 429.585,415.216 427.919,415.549 426.5,416.5C 415.465,417.574 404.465,418.907 393.5,420.5C 391.972,420.483 391.472,419.816 392,418.5C 393,418.5 394,418.5 395,418.5C 395.309,417.234 395.809,416.067 396.5,415C 401.167,412 405.833,409 410.5,406C 418.619,397.652 426.619,390.152 434.5,383.5C 437.272,379.878 439.438,375.878 441,371.5C 441.333,373.5 441.667,375.5 442,377.5C 443.545,373.518 445.045,369.518 446.5,365.5C 451.12,364.507 455.786,364.173 460.5,364.5 Z"/></g>
<g><path style="opacity:1" fill="#fdc457" d="M 227.5,332.5 C 227.826,342.264 228.992,351.931 231,361.5C 231.589,363.863 233.089,364.863 235.5,364.5C 235.389,365.117 235.056,365.617 234.5,366C 238.369,370.037 242.369,373.87 246.5,377.5C 242.656,394.937 240.99,412.604 241.5,430.5C 241.5,431.833 241.5,433.167 241.5,434.5C 218.056,433.566 194.723,431.399 171.5,428C 178.866,427.906 185.866,426.406 192.5,423.5C 201.117,423.76 209.617,422.426 218,419.5C 219.646,421.141 220.646,420.807 221,418.5C 222.073,419.28 223.24,419.113 224.5,418C 222.25,415.578 219.917,413.411 217.5,411.5C 213.177,405.511 208.177,400.178 202.5,395.5C 191.349,384.736 180.349,373.736 169.5,362.5C 165.434,359.437 162.101,355.771 159.5,351.5C 163.558,354.89 167.891,357.89 172.5,360.5C 186.628,369.486 201.961,374.986 218.5,377C 219.804,376.196 220.471,375.029 220.5,373.5C 218.32,365.599 216.653,357.599 215.5,349.5C 215.483,347.435 215.15,345.435 214.5,343.5C 219.107,340.232 223.441,336.565 227.5,332.5 Z"/></g>
<g><path style="opacity:1" fill="#ffba31" d="M 79.5,382.5 C 89.2862,384.089 90.9528,388.589 84.5,396C 77.87,397.037 74.7033,394.203 75,387.5C 76.0591,385.341 77.5591,383.674 79.5,382.5 Z"/></g>
<g><path style="opacity:1" fill="#ffb92f" d="M 160.5,399.5 C 159.697,408.802 154.697,412.636 145.5,411C 137.573,405.874 136.573,399.707 142.5,392.5C 151.119,388.157 157.119,390.491 160.5,399.5 Z"/></g>
<g><path style="opacity:1" fill="#fec85a" d="M 242.5,437.5 C 242.667,441.179 244.334,443.846 247.5,445.5C 242.721,446.107 237.888,447.107 233,448.5C 232.167,448.333 231.333,448.167 230.5,448C 231.833,447.667 233.167,447.333 234.5,447C 205.683,450.59 177.183,449.757 149,444.5C 148.586,444.957 148.086,445.291 147.5,445.5C 144.071,445.093 140.905,444.093 138,442.5C 137.311,443.357 136.478,444.023 135.5,444.5C 130.497,443.594 125.497,442.594 120.5,441.5C 118.613,443.133 117.113,442.8 116,440.5C 115.667,440.833 115.333,441.167 115,441.5C 111.333,439.833 107.667,438.167 104,436.5C 102.211,436.377 100.378,436.377 98.5,436.5C 97.7524,433.705 96.2524,433.038 94,434.5C 84.3062,431.049 74.8062,427.216 65.5,423C 64.2161,422.316 63.0495,422.483 62,423.5C 59.0371,420.089 55.5371,417.256 51.5,415C 49.8876,414.28 48.3876,414.446 47,415.5C 46.0471,413.627 44.8804,413.294 43.5,414.5C 44.2436,409.115 45.2436,403.782 46.5,398.5C 47.2216,398.082 47.7216,397.416 48,396.5C 49.2899,398.792 50.9565,400.792 53,402.5C 53.6914,400.109 54.6914,400.109 56,402.5C 60.0628,404.988 64.0628,408.321 68,412.5C 68.3333,412.167 68.6667,411.833 69,411.5C 74.38,414.131 79.88,417.297 85.5,421C 95.8704,424.353 106.704,428.186 118,432.5C 118.333,432.167 118.667,431.833 119,431.5C 121.391,433.526 123.557,433.526 125.5,431.5C 132.937,433.813 140.437,435.813 148,437.5C 148.689,436.643 149.522,435.977 150.5,435.5C 150.489,436.441 150.989,437.108 152,437.5C 153.301,437.04 154.634,436.706 156,436.5C 163.527,437.625 171.027,438.625 178.5,439.5C 181.296,439.026 184.13,438.693 187,438.5C 188.011,438.892 188.511,439.559 188.5,440.5C 189.748,439.96 190.915,439.293 192,438.5C 195.081,439.146 198.248,439.479 201.5,439.5C 210.5,439 219.5,438.5 228.5,438C 229.025,437.308 229.692,436.808 230.5,436.5C 234.516,436.609 238.516,436.942 242.5,437.5 Z"/></g>
<g><path style="opacity:1" fill="#fdb93c" d="M 465.5,406.5 C 466.965,411.354 468.299,416.354 469.5,421.5C 469.67,422.822 469.337,423.989 468.5,425C 464.205,428.155 459.871,431.321 455.5,434.5C 447.761,440.03 439.428,444.53 430.5,448C 432.301,448.317 432.634,448.984 431.5,450C 403.474,462 374.474,471 344.5,477C 301.599,483.325 258.599,486.825 215.5,487.5C 191.42,486.145 167.587,483.812 144,480.5C 104.694,476.967 66.5275,467.967 29.5,453.5C 28.8165,453.863 28.1499,454.196 27.5,454.5C 27.9925,452.181 28.9925,450.181 30.5,448.5C 40.8865,451.463 51.0532,455.13 61,459.5C 61.3333,459.167 61.6667,458.833 62,458.5C 66.3333,460.167 70.6667,461.833 75,463.5C 75.414,463.043 75.914,462.709 76.5,462.5C 87.072,466.436 97.7387,468.936 108.5,470C 109.325,471.688 110.325,471.855 111.5,470.5C 117.231,471.96 123.064,473.627 129,475.5C 129.519,474.484 130.353,473.818 131.5,473.5C 141.719,475.054 151.552,477.054 161,479.5C 162.194,478.57 163.527,477.903 165,477.5C 175.166,478.933 185.333,480.266 195.5,481.5C 209.969,481.413 224.469,481.413 239,481.5C 240.447,481.055 241.78,480.388 243,479.5C 246.795,480.115 250.628,480.449 254.5,480.5C 265.165,479.367 275.832,478.367 286.5,477.5C 287.442,477.608 288.275,477.941 289,478.5C 291.405,477.726 293.905,477.226 296.5,477C 295.5,476.667 294.5,476.333 293.5,476C 297.182,475.099 300.848,473.932 304.5,472.5C 306.055,472.722 307.389,473.389 308.5,474.5C 311.712,472.091 315.212,471.424 319,472.5C 322.664,469.107 326.83,468.107 331.5,469.5C 339.656,468.815 347.323,466.648 354.5,463C 353.833,462.667 353.167,462.333 352.5,462C 353.667,461.5 354.5,460.667 355,459.5C 355.333,460.5 355.667,461.5 356,462.5C 357.555,460.854 359.221,460.521 361,461.5C 363.916,459.959 366.749,458.293 369.5,456.5C 371.263,456.306 373.097,456.306 375,456.5C 376.941,454.684 377.608,452.684 377,450.5C 377.915,451.328 378.581,452.328 379,453.5C 381.734,452.638 381.901,451.805 379.5,451C 381.194,449.272 382.361,449.772 383,452.5C 384.324,451.12 385.657,450.786 387,451.5C 387.333,450.5 387.667,449.5 388,448.5C 389.281,448.619 390.448,448.119 391.5,447C 390.304,446.346 390.304,445.846 391.5,445.5C 392.251,446.376 392.751,447.376 393,448.5C 396.582,447.254 399.249,444.92 401,441.5C 401.333,442.167 401.667,442.833 402,443.5C 402.84,440.536 403.84,440.203 405,442.5C 406.066,440.901 407.566,439.901 409.5,439.5C 410.251,438.624 410.751,437.624 411,436.5C 411.333,436.833 411.667,437.167 412,437.5C 412.456,436.256 411.956,435.423 410.5,435C 411.253,433.513 412.086,433.346 413,434.5C 414.335,432.395 416.002,431.729 418,432.5C 419,431.5 420,430.5 421,429.5C 421.333,429.833 421.667,430.167 422,430.5C 421.737,429.049 421.904,427.716 422.5,426.5C 424.258,425.872 425.758,424.872 427,423.5C 428.016,424.634 428.683,424.301 429,422.5C 430.016,423.634 430.683,423.301 431,421.5C 431.333,421.833 431.667,422.167 432,422.5C 432.346,420.782 432.846,419.115 433.5,417.5C 433.145,416.478 432.478,415.811 431.5,415.5C 442.27,412.56 453.27,410.06 464.5,408C 465.056,407.617 465.389,407.117 465.5,406.5 Z"/></g>
<g><path style="opacity:1" fill="#fec554" d="M 247.5,445.5 C 248.492,445.328 249.158,445.662 249.5,446.5C 249.062,446.435 248.728,446.601 248.5,447C 250.833,449.333 253.167,451.667 255.5,454C 211.538,459.679 168.205,458.179 125.5,449.5C 124.167,449.833 122.833,450.167 121.5,450.5C 116.076,448.855 110.909,447.521 106,446.5C 105.667,446.833 105.333,447.167 105,447.5C 94.8214,444.666 84.8214,441.332 75,437.5C 74.6667,437.833 74.3333,438.167 74,438.5C 63.1103,433.719 52.4437,428.719 42,423.5C 41.6232,424.942 40.7899,425.942 39.5,426.5C 40.6641,422.341 41.9974,418.341 43.5,414.5C 44.8804,413.294 46.0471,413.627 47,415.5C 48.3876,414.446 49.8876,414.28 51.5,415C 55.5371,417.256 59.0371,420.089 62,423.5C 63.0495,422.483 64.2161,422.316 65.5,423C 74.8062,427.216 84.3062,431.049 94,434.5C 96.2524,433.038 97.7524,433.705 98.5,436.5C 100.378,436.377 102.211,436.377 104,436.5C 107.667,438.167 111.333,439.833 115,441.5C 115.333,441.167 115.667,440.833 116,440.5C 117.113,442.8 118.613,443.133 120.5,441.5C 125.497,442.594 130.497,443.594 135.5,444.5C 136.478,444.023 137.311,443.357 138,442.5C 140.905,444.093 144.071,445.093 147.5,445.5C 148.086,445.291 148.586,444.957 149,444.5C 177.183,449.757 205.683,450.59 234.5,447C 233.167,447.333 231.833,447.667 230.5,448C 231.333,448.167 232.167,448.333 233,448.5C 237.888,447.107 242.721,446.107 247.5,445.5 Z"/></g>
<g><path style="opacity:1" fill="#fdbc41" d="M 431.5,415.5 C 432.478,415.811 433.145,416.478 433.5,417.5C 432.846,419.115 432.346,420.782 432,422.5C 431.667,422.167 431.333,421.833 431,421.5C 430.683,423.301 430.016,423.634 429,422.5C 428.683,424.301 428.016,424.634 427,423.5C 425.758,424.872 424.258,425.872 422.5,426.5C 421.904,427.716 421.737,429.049 422,430.5C 421.667,430.167 421.333,429.833 421,429.5C 420,430.5 419,431.5 418,432.5C 416.002,431.729 414.335,432.395 413,434.5C 412.086,433.346 411.253,433.513 410.5,435C 411.956,435.423 412.456,436.256 412,437.5C 411.667,437.167 411.333,436.833 411,436.5C 410.751,437.624 410.251,438.624 409.5,439.5C 407.566,439.901 406.066,440.901 405,442.5C 403.84,440.203 402.84,440.536 402,443.5C 401.667,442.833 401.333,442.167 401,441.5C 399.249,444.92 396.582,447.254 393,448.5C 392.751,447.376 392.251,446.376 391.5,445.5C 390.304,445.846 390.304,446.346 391.5,447C 390.448,448.119 389.281,448.619 388,448.5C 387.667,449.5 387.333,450.5 387,451.5C 385.657,450.786 384.324,451.12 383,452.5C 382.361,449.772 381.194,449.272 379.5,451C 381.901,451.805 381.734,452.638 379,453.5C 378.581,452.328 377.915,451.328 377,450.5C 377.608,452.684 376.941,454.684 375,456.5C 373.097,456.306 371.263,456.306 369.5,456.5C 366.749,458.293 363.916,459.959 361,461.5C 359.221,460.521 357.555,460.854 356,462.5C 355.667,461.5 355.333,460.5 355,459.5C 354.5,460.667 353.667,461.5 352.5,462C 353.167,462.333 353.833,462.667 354.5,463C 347.323,466.648 339.656,468.815 331.5,469.5C 326.83,468.107 322.664,469.107 319,472.5C 315.212,471.424 311.712,472.091 308.5,474.5C 307.389,473.389 306.055,472.722 304.5,472.5C 300.848,473.932 297.182,475.099 293.5,476C 294.5,476.333 295.5,476.667 296.5,477C 293.905,477.226 291.405,477.726 289,478.5C 288.275,477.941 287.442,477.608 286.5,477.5C 275.832,478.367 265.165,479.367 254.5,480.5C 250.628,480.449 246.795,480.115 243,479.5C 241.78,480.388 240.447,481.055 239,481.5C 224.469,481.413 209.969,481.413 195.5,481.5C 185.333,480.266 175.166,478.933 165,477.5C 163.527,477.903 162.194,478.57 161,479.5C 151.552,477.054 141.719,475.054 131.5,473.5C 130.353,473.818 129.519,474.484 129,475.5C 123.064,473.627 117.231,471.96 111.5,470.5C 110.325,471.855 109.325,471.688 108.5,470C 97.7387,468.936 87.072,466.436 76.5,462.5C 75.914,462.709 75.414,463.043 75,463.5C 70.6667,461.833 66.3333,460.167 62,458.5C 61.6667,458.833 61.3333,459.167 61,459.5C 51.0532,455.13 40.8865,451.463 30.5,448.5C 30.9925,446.181 31.9925,444.181 33.5,442.5C 34.7382,441.588 36.0715,441.421 37.5,442C 53.7659,450.308 70.5992,456.141 88,459.5C 112.496,466.08 137.33,470.08 162.5,471.5C 170.039,472.305 177.539,473.305 185,474.5C 189.363,473.821 193.863,473.821 198.5,474.5C 200.765,474.06 202.932,473.394 205,472.5C 218.772,472.856 232.606,473.189 246.5,473.5C 255.067,471.916 263.733,471.083 272.5,471C 271.294,469.982 271.627,469.482 273.5,469.5C 276.12,471.069 278.453,470.736 280.5,468.5C 283.773,469.585 287.106,469.752 290.5,469C 300.796,467.074 311.129,465.407 321.5,464C 339.455,458.454 357.788,452.787 376.5,447C 386.167,442.667 395.833,438.333 405.5,434C 404.833,433.667 404.167,433.333 403.5,433C 412.411,428.911 420.078,423.411 426.5,416.5C 427.919,415.549 429.585,415.216 431.5,415.5 Z"/></g>
<g><path style="opacity:1" fill="#febf47" d="M 426.5,416.5 C 420.078,423.411 412.411,428.911 403.5,433C 404.167,433.333 404.833,433.667 405.5,434C 395.833,438.333 386.167,442.667 376.5,447C 357.788,452.787 339.455,458.454 321.5,464C 311.129,465.407 300.796,467.074 290.5,469C 287.106,469.752 283.773,469.585 280.5,468.5C 278.453,470.736 276.12,471.069 273.5,469.5C 271.627,469.482 271.294,469.982 272.5,471C 263.733,471.083 255.067,471.916 246.5,473.5C 232.606,473.189 218.772,472.856 205,472.5C 202.932,473.394 200.765,474.06 198.5,474.5C 193.863,473.821 189.363,473.821 185,474.5C 177.539,473.305 170.039,472.305 162.5,471.5C 137.33,470.08 112.496,466.08 88,459.5C 70.5992,456.141 53.7659,450.308 37.5,442C 36.0715,441.421 34.7382,441.588 33.5,442.5C 33.7959,440.597 34.4625,438.93 35.5,437.5C 37.3431,438.043 39.0098,437.376 40.5,435.5C 43.0817,436.714 45.2484,438.38 47,440.5C 49.3977,440.065 51.731,440.731 54,442.5C 55.016,441.366 55.6827,441.699 56,443.5C 56.3333,443.167 56.6667,442.833 57,442.5C 58.7666,444.937 60.9333,445.604 63.5,444.5C 68.0594,446.62 72.5594,448.62 77,450.5C 78.5026,450.165 79.836,450.165 81,450.5C 81.6667,451.167 82.3333,451.833 83,452.5C 83.3879,451.572 84.0546,450.905 85,450.5C 87.5,451.333 90,452.167 92.5,453C 91.5494,453.718 91.3828,454.551 92,455.5C 92.8333,454.5 93.6667,453.5 94.5,452.5C 95.1973,454.385 96.1973,454.718 97.5,453.5C 101.775,454.967 106.108,456.634 110.5,458.5C 111.532,456.96 112.865,456.46 114.5,457C 112.071,457.451 111.904,458.285 114,459.5C 114.689,458.643 115.522,457.977 116.5,457.5C 116.296,458.529 116.796,459.529 118,460.5C 118.519,459.484 119.353,458.818 120.5,458.5C 122.884,459.012 125.217,459.679 127.5,460.5C 128.086,460.291 128.586,459.957 129,459.5C 131.924,459.626 134.591,460.959 137,463.5C 137.333,462.833 137.667,462.167 138,461.5C 140.012,461.525 142.012,461.525 144,461.5C 149.236,463.013 154.236,464.346 159,465.5C 159.875,463.487 161.209,463.487 163,465.5C 166.661,464.7 170.495,464.367 174.5,464.5C 176.059,465.074 177.559,465.74 179,466.5C 190.65,465.897 202.65,465.897 215,466.5C 231.526,465.701 248.026,464.534 264.5,463C 262.042,460.353 262.875,458.853 267,458.5C 268.011,458.892 268.511,459.559 268.5,460.5C 270.059,459.926 271.559,459.26 273,458.5C 277.558,460.484 282.224,461.151 287,460.5C 289.281,458.781 291.614,458.447 294,459.5C 318.368,454.327 342.535,447.493 366.5,439C 364.405,438.444 364.238,437.944 366,437.5C 367.465,438.33 368.965,438.496 370.5,438C 369.833,437.667 369.167,437.333 368.5,437C 375.129,433.111 382.129,429.778 389.5,427C 388.833,426.667 388.167,426.333 387.5,426C 389.888,424.139 392.554,422.806 395.5,422C 394.906,421.536 394.239,421.369 393.5,421.5C 393.5,421.167 393.5,420.833 393.5,420.5C 404.465,418.907 415.465,417.574 426.5,416.5 Z"/></g>
<g><path style="opacity:1" fill="#fec24e" d="M 393.5,421.5 C 394.239,421.369 394.906,421.536 395.5,422C 392.554,422.806 389.888,424.139 387.5,426C 388.167,426.333 388.833,426.667 389.5,427C 382.129,429.778 375.129,433.111 368.5,437C 369.167,437.333 369.833,437.667 370.5,438C 368.965,438.496 367.465,438.33 366,437.5C 364.238,437.944 364.405,438.444 366.5,439C 342.535,447.493 318.368,454.327 294,459.5C 291.614,458.447 289.281,458.781 287,460.5C 282.224,461.151 277.558,460.484 273,458.5C 271.559,459.26 270.059,459.926 268.5,460.5C 268.511,459.559 268.011,458.892 267,458.5C 262.875,458.853 262.042,460.353 264.5,463C 248.026,464.534 231.526,465.701 215,466.5C 202.65,465.897 190.65,465.897 179,466.5C 177.559,465.74 176.059,465.074 174.5,464.5C 170.495,464.367 166.661,464.7 163,465.5C 161.209,463.487 159.875,463.487 159,465.5C 154.236,464.346 149.236,463.013 144,461.5C 142.012,461.525 140.012,461.525 138,461.5C 137.667,462.167 137.333,462.833 137,463.5C 134.591,460.959 131.924,459.626 129,459.5C 128.586,459.957 128.086,460.291 127.5,460.5C 125.217,459.679 122.884,459.012 120.5,458.5C 119.353,458.818 118.519,459.484 118,460.5C 116.796,459.529 116.296,458.529 116.5,457.5C 115.522,457.977 114.689,458.643 114,459.5C 111.904,458.285 112.071,457.451 114.5,457C 112.865,456.46 111.532,456.96 110.5,458.5C 106.108,456.634 101.775,454.967 97.5,453.5C 96.1973,454.718 95.1973,454.385 94.5,452.5C 93.6667,453.5 92.8333,454.5 92,455.5C 91.3828,454.551 91.5494,453.718 92.5,453C 90,452.167 87.5,451.333 85,450.5C 84.0546,450.905 83.3879,451.572 83,452.5C 82.3333,451.833 81.6667,451.167 81,450.5C 79.836,450.165 78.5026,450.165 77,450.5C 72.5594,448.62 68.0594,446.62 63.5,444.5C 60.9333,445.604 58.7666,444.937 57,442.5C 56.6667,442.833 56.3333,443.167 56,443.5C 55.6827,441.699 55.016,441.366 54,442.5C 51.731,440.731 49.3977,440.065 47,440.5C 45.2484,438.38 43.0817,436.714 40.5,435.5C 39.0098,437.376 37.3431,438.043 35.5,437.5C 36.8348,433.828 38.1681,430.162 39.5,426.5C 40.7899,425.942 41.6232,424.942 42,423.5C 52.4437,428.719 63.1103,433.719 74,438.5C 74.3333,438.167 74.6667,437.833 75,437.5C 84.8214,441.332 94.8214,444.666 105,447.5C 105.333,447.167 105.667,446.833 106,446.5C 110.909,447.521 116.076,448.855 121.5,450.5C 122.833,450.167 124.167,449.833 125.5,449.5C 168.205,458.179 211.538,459.679 255.5,454C 253.167,451.667 250.833,449.333 248.5,447C 248.728,446.601 249.062,446.435 249.5,446.5C 259.588,449.081 263.588,445.081 261.5,434.5C 277.552,434.199 293.552,433.199 309.5,431.5C 324.572,430.49 339.572,428.823 354.5,426.5C 367.404,424.428 380.404,422.762 393.5,421.5 Z"/></g>
<g><path style="opacity:1" fill="#fcb635" d="M 469.5,421.5 C 471.451,426.756 473.451,432.09 475.5,437.5C 473.235,436.771 471.235,437.604 469.5,440C 464.705,442 460.371,444 456.5,446C 456.833,446.333 457.167,446.667 457.5,447C 451.947,449.61 446.281,451.943 440.5,454C 441.451,454.718 441.617,455.551 441,456.5C 438.266,453.707 437.266,454.041 438,457.5C 435.843,454.922 434.677,454.922 434.5,457.5C 432.898,456.45 432.065,457.117 432,459.5C 430.605,458.185 429.605,458.519 429,460.5C 428.586,460.043 428.086,459.709 427.5,459.5C 425.205,460.432 422.871,461.265 420.5,462C 421.888,462.889 421.722,463.389 420,463.5C 419.127,463.265 418.293,462.931 417.5,462.5C 417.167,463.167 416.833,463.833 416.5,464.5C 415.232,463.572 413.899,463.405 412.5,464C 413.167,464.333 413.833,464.667 414.5,465C 409.503,466.249 404.169,467.583 398.5,469C 399.888,469.889 399.722,470.389 398,470.5C 397.127,470.265 396.293,469.931 395.5,469.5C 395.704,470.529 395.204,471.529 394,472.5C 392.867,470.789 391.367,470.289 389.5,471C 390.167,471.333 390.833,471.667 391.5,472C 385.874,472.687 380.541,474.187 375.5,476.5C 373.902,475.515 372.235,475.349 370.5,476C 372.901,476.805 372.734,477.638 370,478.5C 369.261,477.426 368.261,476.759 367,476.5C 366.223,478.352 364.39,479.686 361.5,480.5C 278.744,496.158 195.911,496.825 113,482.5C 100.527,480.942 88.0269,478.442 75.5,475C 58.3571,470.223 41.6904,465.056 25.5,459.5C 25.7959,457.597 26.4625,455.93 27.5,454.5C 28.1499,454.196 28.8165,453.863 29.5,453.5C 66.5275,467.967 104.694,476.967 144,480.5C 167.587,483.812 191.42,486.145 215.5,487.5C 258.599,486.825 301.599,483.325 344.5,477C 374.474,471 403.474,462 431.5,450C 432.634,448.984 432.301,448.317 430.5,448C 439.428,444.53 447.761,440.03 455.5,434.5C 459.871,431.321 464.205,428.155 468.5,425C 469.337,423.989 469.67,422.822 469.5,421.5 Z"/></g>
<g><path style="opacity:1" fill="#fbb32f" d="M 475.5,437.5 C 478.054,441.941 480.054,446.608 481.5,451.5C 479.548,450.592 477.548,450.759 475.5,452C 462.027,459.16 448.027,465.16 433.5,470C 355.571,493.622 276.071,502.455 195,496.5C 175.896,496.247 156.73,494.747 137.5,492C 117.732,488.846 98.065,485.18 78.5,481C 60.1677,476.622 41.8343,471.455 23.5,465.5C 23.5,466.5 23.5,467.5 23.5,468.5C 23.1667,468.5 22.8333,468.5 22.5,468.5C 22.5275,465.084 23.5275,462.084 25.5,459.5C 41.6904,465.056 58.3571,470.223 75.5,475C 88.0269,478.442 100.527,480.942 113,482.5C 195.911,496.825 278.744,496.158 361.5,480.5C 364.39,479.686 366.223,478.352 367,476.5C 368.261,476.759 369.261,477.426 370,478.5C 372.734,477.638 372.901,476.805 370.5,476C 372.235,475.349 373.902,475.515 375.5,476.5C 380.541,474.187 385.874,472.687 391.5,472C 390.833,471.667 390.167,471.333 389.5,471C 391.367,470.289 392.867,470.789 394,472.5C 395.204,471.529 395.704,470.529 395.5,469.5C 396.293,469.931 397.127,470.265 398,470.5C 399.722,470.389 399.888,469.889 398.5,469C 404.169,467.583 409.503,466.249 414.5,465C 413.833,464.667 413.167,464.333 412.5,464C 413.899,463.405 415.232,463.572 416.5,464.5C 416.833,463.833 417.167,463.167 417.5,462.5C 418.293,462.931 419.127,463.265 420,463.5C 421.722,463.389 421.888,462.889 420.5,462C 422.871,461.265 425.205,460.432 427.5,459.5C 428.086,459.709 428.586,460.043 429,460.5C 429.605,458.519 430.605,458.185 432,459.5C 432.065,457.117 432.898,456.45 434.5,457.5C 434.677,454.922 435.843,454.922 438,457.5C 437.266,454.041 438.266,453.707 441,456.5C 441.617,455.551 441.451,454.718 440.5,454C 446.281,451.943 451.947,449.61 457.5,447C 457.167,446.667 456.833,446.333 456.5,446C 460.371,444 464.705,442 469.5,440C 471.235,437.604 473.235,436.771 475.5,437.5 Z"/></g>
<g><path style="opacity:1" fill="#fbaf28" d="M 481.5,451.5 C 483.341,453.849 484.674,456.515 485.5,459.5C 480.311,458.153 475.478,459.486 471,463.5C 470.586,463.043 470.086,462.709 469.5,462.5C 464.628,464.672 459.961,466.339 455.5,467.5C 455.891,468.718 455.224,469.552 453.5,470C 451.186,471.398 448.853,471.565 446.5,470.5C 446.167,471.167 445.833,471.833 445.5,472.5C 444.232,471.572 442.899,471.405 441.5,472C 443.595,472.556 443.762,473.056 442,473.5C 441.127,473.265 440.293,472.931 439.5,472.5C 439.167,473.167 438.833,473.833 438.5,474.5C 437.833,474.167 437.167,473.833 436.5,473.5C 435.304,473.846 435.304,474.346 436.5,475C 435.216,475.684 434.049,475.517 433,474.5C 429.707,477.123 425.874,478.456 421.5,478.5C 421.5,479.5 421.5,480.5 421.5,481.5C 417.649,482.561 413.815,482.561 410,481.5C 409.333,482.167 408.667,482.833 408,483.5C 406.535,482.67 405.035,482.504 403.5,483C 405.595,483.556 405.762,484.056 404,484.5C 402.535,483.67 401.035,483.504 399.5,484C 399.833,484.333 400.167,484.667 400.5,485C 398.302,485.373 396.135,485.873 394,486.5C 393.228,486.355 392.561,486.022 392,485.5C 389.197,486.998 386.197,487.998 383,488.5C 380.406,488.761 377.74,488.761 375,488.5C 374.25,489.126 373.416,489.626 372.5,490C 372.833,490.333 373.167,490.667 373.5,491C 278.171,507.269 183.337,506.103 89,487.5C 67.1184,482.393 45.2851,476.06 23.5,468.5C 23.5,467.5 23.5,466.5 23.5,465.5C 41.8343,471.455 60.1677,476.622 78.5,481C 98.065,485.18 117.732,488.846 137.5,492C 156.73,494.747 175.896,496.247 195,496.5C 276.071,502.455 355.571,493.622 433.5,470C 448.027,465.16 462.027,459.16 475.5,452C 477.548,450.759 479.548,450.592 481.5,451.5 Z"/></g>
<g><path style="opacity:1" fill="#faab23" d="M 485.5,459.5 C 486.738,461.214 487.405,463.214 487.5,465.5C 425.207,488.77 360.874,501.937 294.5,505C 270.222,505.682 246.055,506.182 222,506.5C 218.228,505.726 214.395,505.06 210.5,504.5C 205.482,505.109 200.482,505.442 195.5,505.5C 192.937,505.263 192.937,504.763 195.5,504C 195,503.833 194.5,503.667 194,503.5C 190.151,504.021 186.317,504.354 182.5,504.5C 176.511,503.489 170.511,502.489 164.5,501.5C 164.167,501.833 163.833,502.167 163.5,502.5C 165.655,503.001 167.322,504.001 168.5,505.5C 125.343,501.252 82.6768,494.085 40.5,484C 33.9157,482.624 28.0824,479.791 23,475.5C 22.5034,473.19 22.3367,470.857 22.5,468.5C 22.8333,468.5 23.1667,468.5 23.5,468.5C 45.2851,476.06 67.1184,482.393 89,487.5C 183.337,506.103 278.171,507.269 373.5,491C 373.167,490.667 372.833,490.333 372.5,490C 373.416,489.626 374.25,489.126 375,488.5C 377.74,488.761 380.406,488.761 383,488.5C 386.197,487.998 389.197,486.998 392,485.5C 392.561,486.022 393.228,486.355 394,486.5C 396.135,485.873 398.302,485.373 400.5,485C 400.167,484.667 399.833,484.333 399.5,484C 401.035,483.504 402.535,483.67 404,484.5C 405.762,484.056 405.595,483.556 403.5,483C 405.035,482.504 406.535,482.67 408,483.5C 408.667,482.833 409.333,482.167 410,481.5C 413.815,482.561 417.649,482.561 421.5,481.5C 421.5,480.5 421.5,479.5 421.5,478.5C 425.874,478.456 429.707,477.123 433,474.5C 434.049,475.517 435.216,475.684 436.5,475C 435.304,474.346 435.304,473.846 436.5,473.5C 437.167,473.833 437.833,474.167 438.5,474.5C 438.833,473.833 439.167,473.167 439.5,472.5C 440.293,472.931 441.127,473.265 442,473.5C 443.762,473.056 443.595,472.556 441.5,472C 442.899,471.405 444.232,471.572 445.5,472.5C 445.833,471.833 446.167,471.167 446.5,470.5C 448.853,471.565 451.186,471.398 453.5,470C 455.224,469.552 455.891,468.718 455.5,467.5C 459.961,466.339 464.628,464.672 469.5,462.5C 470.086,462.709 470.586,463.043 471,463.5C 475.478,459.486 480.311,458.153 485.5,459.5 Z"/></g>
<g><path style="opacity:1" fill="#f9a81f" d="M 487.5,465.5 C 488.641,468.64 488.808,471.973 488,475.5C 482.918,479.791 477.084,482.624 470.5,484C 410.661,497.333 350.327,506.5 289.5,511.5C 266.833,511.5 244.167,511.5 221.5,511.5C 203.854,510.221 186.187,508.221 168.5,505.5C 167.322,504.001 165.655,503.001 163.5,502.5C 163.833,502.167 164.167,501.833 164.5,501.5C 170.511,502.489 176.511,503.489 182.5,504.5C 186.317,504.354 190.151,504.021 194,503.5C 194.5,503.667 195,503.833 195.5,504C 192.937,504.763 192.937,505.263 195.5,505.5C 200.482,505.442 205.482,505.109 210.5,504.5C 214.395,505.06 218.228,505.726 222,506.5C 246.055,506.182 270.222,505.682 294.5,505C 360.874,501.937 425.207,488.77 487.5,465.5 Z"/></g>
</svg>
