<?xml version="1.0" encoding="UTF-8"?>
<!DOCTYPE svg PUBLIC "-//W3C//DTD SVG 1.1//EN" "http://www.w3.org/Graphics/SVG/1.1/DTD/svg11.dtd">
<svg xmlns="http://www.w3.org/2000/svg" version="1.1" width="512px" height="512px" style="shape-rendering:geometricPrecision; text-rendering:geometricPrecision; image-rendering:optimizeQuality; fill-rule:evenodd; clip-rule:evenodd" xmlns:xlink="http://www.w3.org/1999/xlink">
<g><path style="opacity:0.994" fill="#6b0987" d="M 252.5,17.5 C 265.971,20.1034 277.137,26.7701 286,37.5C 295.537,49.2442 301.871,62.5775 305,77.5C 337.668,70.9194 361.835,82.2527 377.5,111.5C 408.229,103.239 432.395,112.239 450,138.5C 451.862,142.419 453.529,146.419 455,150.5C 471.582,135.435 487.582,136.102 503,152.5C 504.608,155.382 505.941,158.382 507,161.5C 507.832,272.07 507.665,382.57 506.5,493C 338.93,493.832 171.43,493.666 4,492.5C 3.33333,382.167 3.33333,271.833 4,161.5C 8.7575,147.747 18.4242,140.414 33,139.5C 43.2059,139.934 51.2059,144.267 57,152.5C 69.2607,123.935 91.094,110.435 122.5,112C 141.281,91.637 163.948,85.637 190.5,94C 194.745,96.0391 198.912,98.2058 203,100.5C 203.474,72.3757 213.641,48.5424 233.5,29C 239.597,24.6251 245.93,20.7918 252.5,17.5 Z"/></g>
<g><path style="opacity:1" fill="#7bab51" d="M 270.5,35.5 C 284.94,56.9299 290.774,80.5966 288,106.5C 285.894,122.411 278.061,134.411 264.5,142.5C 261.272,143.414 257.939,143.747 254.5,143.5C 252.423,123.524 254.09,103.857 259.5,84.5C 257.993,80.1649 255.493,79.4982 252,82.5C 246.046,102.133 244.212,122.133 246.5,142.5C 244.901,142.768 243.568,142.434 242.5,141.5C 243.239,141.631 243.906,141.464 244.5,141C 228.391,130.069 221.058,114.736 222.5,95C 222.336,72.6637 228.67,52.4971 241.5,34.5C 245.489,30.8331 250.156,28.1664 255.5,26.5C 261.356,28.2534 266.356,31.2534 270.5,35.5 Z"/></g>
<g><path style="opacity:1" fill="#97c66f" d="M 241.5,34.5 C 228.67,52.4971 222.336,72.6637 222.5,95C 221.058,114.736 228.391,130.069 244.5,141C 243.906,141.464 243.239,141.631 242.5,141.5C 221.187,134.81 211.187,120.144 212.5,97.5C 212.771,71.9699 222.438,50.9699 241.5,34.5 Z"/></g>
<g><path style="opacity:1" fill="#5e8c35" d="M 270.5,35.5 C 291.905,55.0163 301.072,79.3496 298,108.5C 294.719,127.614 283.552,138.948 264.5,142.5C 278.061,134.411 285.894,122.411 288,106.5C 290.774,80.5966 284.94,56.9299 270.5,35.5 Z"/></g>
<g><path style="opacity:1" fill="#ae5e40" d="M 388.5,117.5 C 394.929,116.698 400.929,117.864 406.5,121C 428.122,136.987 436.789,158.487 432.5,185.5C 314.5,185.5 196.5,185.5 78.5,185.5C 75.413,157.007 86.0797,135.673 110.5,121.5C 115.844,121.666 121.177,121.499 126.5,121C 148.202,95.331 173.202,91.6644 201.5,110C 203,111.5 204.5,113 206,114.5C 212.041,135.542 225.874,147.708 247.5,151C 250.867,165.535 259.867,174.035 274.5,176.5C 278.989,176.167 280.489,173.833 279,169.5C 267.928,168.599 260.428,162.932 256.5,152.5C 278.038,150.996 293.538,140.663 303,121.5C 303.822,119.212 304.489,116.878 305,114.5C 306.027,104.863 306.86,95.1962 307.5,85.5C 338.504,80.0219 359.838,91.8552 371.5,121C 373.167,121.667 374.833,121.667 376.5,121C 380.307,119.119 384.307,117.953 388.5,117.5 Z"/></g>
<g><path style="opacity:1" fill="#914023" d="M 388.5,117.5 C 416.923,114.803 436.423,126.803 447,153.5C 448.403,164.102 448.903,174.769 448.5,185.5C 443.167,185.5 437.833,185.5 432.5,185.5C 436.789,158.487 428.122,136.987 406.5,121C 400.929,117.864 394.929,116.698 388.5,117.5 Z"/></g>
<g><path style="opacity:1" fill="#cb7b5e" d="M 110.5,121.5 C 86.0797,135.673 75.413,157.007 78.5,185.5C 73.1667,185.5 67.8333,185.5 62.5,185.5C 58.6517,155.346 70.6517,134.513 98.5,123C 102.418,121.844 106.418,121.344 110.5,121.5 Z"/></g>
<g><path style="opacity:1" fill="#fbdf6a" d="M 36.5,148.5 C 30.9761,152.874 27.4761,158.541 26,165.5C 25.5001,183.497 25.3334,201.497 25.5,219.5C 23.9826,219.511 22.8159,220.177 22,221.5C 21.3333,230.5 21.3333,239.5 22,248.5C 23.0391,249.71 24.2058,250.71 25.5,251.5C 25.5,329.167 25.5,406.833 25.5,484.5C 20.8333,484.5 16.1667,484.5 11.5,484.5C 11.3333,377.833 11.5,271.166 12,164.5C 15.9654,152.766 24.132,147.432 36.5,148.5 Z"/></g>
<g><path style="opacity:1" fill="#dda32e" d="M 472.5,149.5 C 485.535,146.774 494.369,151.774 499,164.5C 499.5,271.499 499.667,378.499 499.5,485.5C 485.323,485.829 471.323,485.496 457.5,484.5C 466.833,484.5 476.167,484.5 485.5,484.5C 485.667,378.166 485.5,271.833 485,165.5C 483.898,157.585 479.731,152.252 472.5,149.5 Z"/></g>
<g><path style="opacity:1" fill="#fbc14c" d="M 36.5,148.5 C 44.583,150.08 50.083,154.747 53,162.5C 53.5,270.166 53.6667,377.833 53.5,485.5C 39.3234,485.829 25.3234,485.496 11.5,484.5C 16.1667,484.5 20.8333,484.5 25.5,484.5C 25.5,406.833 25.5,329.167 25.5,251.5C 27.0174,251.489 28.1841,250.823 29,249.5C 29.6667,239.833 29.6667,230.167 29,220.5C 27.9887,219.663 26.8221,219.33 25.5,219.5C 25.3334,201.497 25.5001,183.497 26,165.5C 27.4761,158.541 30.9761,152.874 36.5,148.5 Z"/></g>
<g><path style="opacity:1" fill="#fbc14b" d="M 472.5,149.5 C 479.731,152.252 483.898,157.585 485,165.5C 485.5,271.833 485.667,378.166 485.5,484.5C 476.167,484.5 466.833,484.5 457.5,484.5C 457.333,377.166 457.5,269.833 458,162.5C 460.518,155.477 465.352,151.143 472.5,149.5 Z"/></g>
<g><path style="opacity:1" fill="#fbc14c" d="M 62.5,193.5 C 191.167,193.5 319.833,193.5 448.5,193.5C 448.5,224.167 448.5,254.833 448.5,285.5C 319.833,285.5 191.167,285.5 62.5,285.5C 62.5,254.833 62.5,224.167 62.5,193.5 Z"/></g>
<g><path style="opacity:1" fill="#721887" d="M 25.5,219.5 C 26.8221,219.33 27.9887,219.663 29,220.5C 29.6667,230.167 29.6667,239.833 29,249.5C 28.1841,250.823 27.0174,251.489 25.5,251.5C 24.2058,250.71 23.0391,249.71 22,248.5C 21.3333,239.5 21.3333,230.5 22,221.5C 22.8159,220.177 23.9826,219.511 25.5,219.5 Z"/></g>
<g><path style="opacity:1" fill="#fbc14c" d="M 62.5,293.5 C 191.167,293.5 319.833,293.5 448.5,293.5C 448.5,324.167 448.5,354.833 448.5,385.5C 319.833,385.5 191.167,385.5 62.5,385.5C 62.5,354.833 62.5,324.167 62.5,293.5 Z"/></g>
<g><path style="opacity:1" fill="#fbc14c" d="M 62.5,393.5 C 191.167,393.5 319.833,393.5 448.5,393.5C 448.5,424.167 448.5,454.833 448.5,485.5C 319.833,485.5 191.167,485.5 62.5,485.5C 62.5,454.833 62.5,424.167 62.5,393.5 Z"/></g>
</svg>
