<?xml version="1.0" encoding="UTF-8"?>
<!DOCTYPE svg PUBLIC "-//W3C//DTD SVG 1.1//EN" "http://www.w3.org/Graphics/SVG/1.1/DTD/svg11.dtd">
<svg xmlns="http://www.w3.org/2000/svg" version="1.1" width="512px" height="512px" style="shape-rendering:geometricPrecision; text-rendering:geometricPrecision; image-rendering:optimizeQuality; fill-rule:evenodd; clip-rule:evenodd" xmlns:xlink="http://www.w3.org/1999/xlink">
<g><path style="opacity:0.975" fill="#010100" d="M 72.5,-0.5 C 73.5,-0.5 74.5,-0.5 75.5,-0.5C 83.5047,6.26746 91.6713,12.9341 100,19.5C 108.646,13.3475 116.813,6.68084 124.5,-0.5C 124.833,-0.5 125.167,-0.5 125.5,-0.5C 133.505,6.26746 141.671,12.9341 150,19.5C 158.646,13.3475 166.813,6.68084 174.5,-0.5C 174.833,-0.5 175.167,-0.5 175.5,-0.5C 183.768,5.92414 191.935,12.5908 200,19.5C 208.646,13.3475 216.813,6.68084 224.5,-0.5C 225.5,-0.5 226.5,-0.5 227.5,-0.5C 231.894,4.55724 235.894,9.89058 239.5,15.5C 230.458,40.1283 221.125,64.6283 211.5,89C 216.155,89.4992 220.821,89.6658 225.5,89.5C 225.5,105.167 225.5,120.833 225.5,136.5C 221.486,136.334 217.486,136.501 213.5,137C 248.997,181.163 273.497,230.996 287,286.5C 291.638,306.663 295.305,326.996 298,347.5C 315.219,320.157 339.719,310.324 371.5,318C 381.565,320.914 390.231,326.081 397.5,333.5C 401.221,302.519 417.221,280.685 445.5,268C 450.077,266.356 454.744,265.022 459.5,264C 476.801,262.64 494.135,262.14 511.5,262.5C 511.5,278.5 511.5,294.5 511.5,310.5C 506.089,341.092 488.756,361.925 459.5,373C 453.235,374.655 446.902,375.989 440.5,377C 452.136,389.111 458.802,403.611 460.5,420.5C 487.477,427.144 504.477,443.811 511.5,470.5C 511.5,484.167 511.5,497.833 511.5,511.5C 495.833,511.5 480.167,511.5 464.5,511.5C 464.5,509.5 464.5,507.5 464.5,505.5C 465.477,502.713 465.81,499.713 465.5,496.5C 475.833,496.5 486.167,496.5 496.5,496.5C 496.825,488.648 496.492,480.982 495.5,473.5C 491.2,454.365 479.534,442.199 460.5,437C 454.555,435.838 448.555,435.338 442.5,435.5C 446.672,414.043 440.339,396.543 423.5,383C 415.868,378.066 407.535,375.899 398.5,376.5C 397.734,352.568 385.734,337.735 362.5,332C 357.177,331.501 351.844,331.334 346.5,331.5C 327.07,334.761 314.237,345.761 308,364.5C 306.892,368.086 306.392,371.753 306.5,375.5C 279.689,374.486 262.522,386.819 255,412.5C 254.269,420.202 254.436,427.869 255.5,435.5C 232.243,437.255 217.076,449.255 210,471.5C 209.5,479.827 209.334,488.16 209.5,496.5C 237.835,496.667 266.169,496.5 294.5,496C 290.202,491.55 286.535,486.717 283.5,481.5C 281.207,475.332 279.373,468.998 278,462.5C 277.5,448.837 277.333,435.171 277.5,421.5C 291.171,421.333 304.837,421.5 318.5,422C 340.162,424.916 355.328,436.416 364,456.5C 365.788,461.391 366.955,466.391 367.5,471.5C 367.5,479.833 367.5,488.167 367.5,496.5C 385.167,496.5 402.833,496.5 420.5,496.5C 420.5,499.5 420.5,502.5 420.5,505.5C 420.5,507.5 420.5,509.5 420.5,511.5C 344.833,511.5 269.167,511.5 193.5,511.5C 193.5,501.5 193.5,491.5 193.5,481.5C 128.833,481.5 64.1667,481.5 -0.5,481.5C -0.5,445.167 -0.5,408.833 -0.5,372.5C 3.16255,309.858 19.3292,250.524 48,194.5C 59.4697,174.386 72.3031,155.219 86.5,137C 82.5138,136.501 78.5138,136.334 74.5,136.5C 74.5,120.833 74.5,105.167 74.5,89.5C 79.5111,89.6659 84.5111,89.4993 89.5,89C 79.6373,64.4123 69.9707,39.7457 60.5,15C 65.0977,10.2431 69.0977,5.07644 72.5,-0.5 Z"/></g>
<g><path style="opacity:1" fill="#71859d" d="M 200.5,74.5 C 172.5,74.5 144.5,74.5 116.5,74.5C 111.969,62.2421 107.636,49.9088 103.5,37.5C 110.476,31.3645 117.643,25.3645 125,19.5C 133.333,26.1667 141.667,32.8333 150,39.5C 158.622,33.2133 166.955,26.5466 175,19.5C 183.409,26.2873 191.909,32.954 200.5,39.5C 206.575,34.3802 212.742,29.3802 219,24.5C 213.156,41.188 206.99,57.8547 200.5,74.5 Z"/></g>
<g><path style="opacity:1" fill="#526174" d="M 103.5,37.5 C 107.636,49.9088 111.969,62.2421 116.5,74.5C 144.5,74.5 172.5,74.5 200.5,74.5C 198.645,79.7116 196.645,84.8783 194.5,90C 174.836,90.5 155.169,90.6666 135.5,90.5C 135.5,92.8333 135.5,95.1667 135.5,97.5C 130.5,97.5 125.5,97.5 120.5,97.5C 120.5,95.1667 120.5,92.8333 120.5,90.5C 115.57,90.8025 110.737,90.4692 106,89.5C 98.3236,68.3032 90.1569,47.3032 81.5,26.5C 82.0016,25.479 82.6683,25.3123 83.5,26C 88.7244,30.8588 94.2244,35.3588 100,39.5C 101.113,38.695 102.279,38.0283 103.5,37.5 Z"/></g>
<g><path style="opacity:1" fill="#f6f7f9" d="M 112.5,45.5 C 117.833,45.5 123.167,45.5 128.5,45.5C 128.5,50.5 128.5,55.5 128.5,60.5C 123.167,60.5 117.833,60.5 112.5,60.5C 112.5,55.5 112.5,50.5 112.5,45.5 Z"/></g>
<g><path style="opacity:1" fill="#a8a56b" d="M 120.5,97.5 C 125.5,97.5 130.5,97.5 135.5,97.5C 135.5,97.8333 135.5,98.1667 135.5,98.5C 130.833,98.5 126.167,98.5 121.5,98.5C 121.802,101.059 121.468,103.393 120.5,105.5C 120.5,102.833 120.5,100.167 120.5,97.5 Z"/></g>
<g><path style="opacity:1" fill="#f7e767" d="M 135.5,98.5 C 135.5,100.833 135.5,103.167 135.5,105.5C 160.5,105.5 185.5,105.5 210.5,105.5C 210.5,110.5 210.5,115.5 210.5,120.5C 175.167,120.5 139.833,120.5 104.5,120.5C 104.5,115.5 104.5,110.5 104.5,105.5C 109.833,105.5 115.167,105.5 120.5,105.5C 121.468,103.393 121.802,101.059 121.5,98.5C 126.167,98.5 130.833,98.5 135.5,98.5 Z"/></g>
<g><path style="opacity:1" fill="#edd60e" d="M 104.5,105.5 C 104.5,110.5 104.5,115.5 104.5,120.5C 99.8333,120.5 95.1667,120.5 90.5,120.5C 90.5,115.5 90.5,110.5 90.5,105.5C 95.1667,105.5 99.8333,105.5 104.5,105.5 Z"/></g>
<g><path style="opacity:1" fill="#526073" d="M 126.5,135.5 C 122.167,140.833 117.833,146.167 113.5,151.5C 110.833,155.167 108.167,158.833 105.5,162.5C 102.117,166.553 99.1173,170.886 96.5,175.5C 93.1427,179.535 90.1427,183.868 87.5,188.5C 52.2743,246.032 33.4409,308.699 31,376.5C 30.5,400.831 30.3334,425.164 30.5,449.5C 87.8333,449.5 145.167,449.5 202.5,449.5C 199.702,454.893 197.702,460.56 196.5,466.5C 135.833,466.5 75.1667,466.5 14.5,466.5C 14.3334,437.165 14.5,407.831 15,378.5C 18.1304,294.763 44.4637,219.43 94,152.5C 98.8333,147 103.667,141.5 108.5,136C 114.491,135.501 120.491,135.334 126.5,135.5 Z"/></g>
<g><path style="opacity:1" fill="#71859d" d="M 126.5,135.5 C 148.503,135.333 170.503,135.5 192.5,136C 247.79,201.475 278.124,277.308 283.5,363.5C 263.122,369.373 249.289,382.373 242,402.5C 240.286,409.062 239.119,415.728 238.5,422.5C 223.6,427.747 211.6,436.747 202.5,449.5C 145.167,449.5 87.8333,449.5 30.5,449.5C 30.3334,425.164 30.5,400.831 31,376.5C 33.4409,308.699 52.2743,246.032 87.5,188.5C 91.1035,190.64 94.7701,192.807 98.5,195C 99.635,195.749 100.635,195.583 101.5,194.5C 103.5,191.167 105.5,187.833 107.5,184.5C 103.986,181.253 100.32,178.253 96.5,175.5C 99.1173,170.886 102.117,166.553 105.5,162.5C 108.481,166.079 111.981,169.079 116,171.5C 118.987,169.846 121.321,167.513 123,164.5C 123.465,163.069 124.299,161.903 125.5,161C 121.985,157.093 117.985,153.927 113.5,151.5C 117.833,146.167 122.167,140.833 126.5,135.5 Z"/></g>
<g><path style="opacity:1" fill="#fafbfc" d="M 113.5,151.5 C 117.985,153.927 121.985,157.093 125.5,161C 124.299,161.903 123.465,163.069 123,164.5C 121.321,167.513 118.987,169.846 116,171.5C 111.981,169.079 108.481,166.079 105.5,162.5C 108.167,158.833 110.833,155.167 113.5,151.5 Z"/></g>
<g><path style="opacity:1" fill="#fafafb" d="M 96.5,175.5 C 100.32,178.253 103.986,181.253 107.5,184.5C 105.5,187.833 103.5,191.167 101.5,194.5C 100.635,195.583 99.635,195.749 98.5,195C 94.7701,192.807 91.1035,190.64 87.5,188.5C 90.1427,183.868 93.1427,179.535 96.5,175.5 Z"/></g>
<g><path style="opacity:1" fill="#030304" d="M 196.5,246.5 C 195.462,248.572 193.962,250.239 192,251.5C 151.208,231.593 115.541,238.26 85,271.5C 82.3063,274.892 80.1396,278.559 78.5,282.5C 74.0202,289.14 70.8535,296.474 69,304.5C 62.5709,355.384 83.7376,388.551 132.5,404C 153.14,407.968 172.473,404.801 190.5,394.5C 214.006,380.535 227.84,359.868 232,332.5C 234.382,304.972 225.716,281.639 206,262.5C 205.333,261.5 205.333,260.5 206,259.5C 207.376,258.295 208.542,256.962 209.5,255.5C 211.479,254.188 213.145,252.521 214.5,250.5C 242.098,276.061 252.265,307.394 245,344.5C 234.608,382.559 210.441,407.059 172.5,418C 126.195,426.138 90.3617,410.638 65,371.5C 43.3566,326.911 49.5233,286.744 83.5,251C 119.947,221.102 158.947,217.436 200.5,240C 198.942,242.052 197.608,244.219 196.5,246.5 Z"/></g>
<g><path style="opacity:1" fill="#e2e9f2" d="M 196.5,246.5 C 201.365,248.763 205.698,251.763 209.5,255.5C 208.542,256.962 207.376,258.295 206,259.5C 205.333,260.5 205.333,261.5 206,262.5C 225.716,281.639 234.382,304.972 232,332.5C 227.84,359.868 214.006,380.535 190.5,394.5C 147.919,403.949 114.086,390.949 89,355.5C 75.422,332.605 71.922,308.272 78.5,282.5C 80.1396,278.559 82.3063,274.892 85,271.5C 115.541,238.26 151.208,231.593 192,251.5C 193.962,250.239 195.462,248.572 196.5,246.5 Z"/></g>
<g><path style="opacity:1" fill="#fdfdfe" d="M 104.5,270.5 C 109.833,270.5 115.167,270.5 120.5,270.5C 120.5,275.5 120.5,280.5 120.5,285.5C 115.167,285.5 109.833,285.5 104.5,285.5C 104.5,280.5 104.5,275.5 104.5,270.5 Z"/></g>
<g><path style="opacity:1" fill="#030302" d="M 149.5,275.5 C 161.452,284.775 170.785,296.108 177.5,309.5C 188.115,308.523 198.781,308.19 209.5,308.5C 209.667,319.172 209.5,329.839 209,340.5C 199.214,368.66 179.38,380.327 149.5,375.5C 117.836,380.107 98.0023,367.107 90,336.5C 89.5002,327.173 89.3335,317.839 89.5,308.5C 100.545,308.428 111.545,308.594 122.5,309C 124.269,304.629 126.436,300.462 129,296.5C 136.036,289.632 142.869,282.632 149.5,275.5 Z"/></g>
<g><path style="opacity:1" fill="#c7f32d" d="M 476.5,344.5 C 464.075,346.624 451.742,346.957 439.5,345.5C 443.963,340.535 448.63,335.702 453.5,331C 449.984,327.651 446.651,324.151 443.5,320.5C 438.146,325.522 432.813,330.522 427.5,335.5C 426.852,322.673 427.852,310.006 430.5,297.5C 438.016,288.901 447.35,283.067 458.5,280C 471.106,278.58 483.772,278.08 496.5,278.5C 499.34,298.471 495.84,317.138 486,334.5C 483.332,338.334 480.165,341.667 476.5,344.5 Z"/></g>
<g><path style="opacity:1" fill="#c7d4e7" d="M 78.5,282.5 C 71.922,308.272 75.422,332.605 89,355.5C 114.086,390.949 147.919,403.949 190.5,394.5C 172.473,404.801 153.14,407.968 132.5,404C 83.7376,388.551 62.5709,355.384 69,304.5C 70.8535,296.474 74.0202,289.14 78.5,282.5 Z"/></g>
<g><path style="opacity:1" fill="#dbf480" d="M 157.5,304.5 C 154.939,306.371 152.439,308.371 150,310.5C 147.561,308.371 145.061,306.371 142.5,304.5C 144.795,301.703 147.295,299.036 150,296.5C 152.705,299.036 155.205,301.703 157.5,304.5 Z"/></g>
<g><path style="opacity:1" fill="#bae22a" d="M 430.5,297.5 C 427.852,310.006 426.852,322.673 427.5,335.5C 423.203,340.298 418.703,344.965 414,349.5C 410.82,329.214 416.32,311.881 430.5,297.5 Z"/></g>
<g><path style="opacity:1" fill="#fcfef0" d="M 463.5,299.5 C 468.33,301.649 472.33,304.982 475.5,309.5C 472.468,313.366 468.968,316.699 465,319.5C 461.032,316.699 457.532,313.366 454.5,309.5C 457.522,306.147 460.522,302.813 463.5,299.5 Z"/></g>
<g><path style="opacity:1" fill="#c5f02e" d="M 142.5,304.5 C 145.061,306.371 147.561,308.371 150,310.5C 152.439,308.371 154.939,306.371 157.5,304.5C 160.431,308.017 161.931,312.017 162,316.5C 157.333,319.833 153.333,323.833 150,328.5C 146.145,323.311 141.645,318.811 136.5,315C 137.888,311.046 139.888,307.546 142.5,304.5 Z"/></g>
<g><path style="opacity:1" fill="#bde62b" d="M 141.5,347.5 C 141.5,351.833 141.5,356.167 141.5,360.5C 137.833,360.5 134.167,360.5 130.5,360.5C 118.636,358.478 110.469,351.811 106,340.5C 104.711,334.912 104.211,329.245 104.5,323.5C 123.731,321.262 136.064,329.262 141.5,347.5 Z"/></g>
<g><path style="opacity:1" fill="#c7f32d" d="M 189.5,347.5 C 183.211,348.372 176.878,348.705 170.5,348.5C 170.207,341.745 170.54,335.078 171.5,328.5C 173.965,326.163 176.965,324.663 180.5,324C 185.155,323.501 189.821,323.334 194.5,323.5C 195.736,332.265 194.07,340.265 189.5,347.5 Z"/></g>
<g><path style="opacity:1" fill="#b7df29" d="M 171.5,328.5 C 170.54,335.078 170.207,341.745 170.5,348.5C 176.878,348.705 183.211,348.372 189.5,347.5C 184.57,354.979 177.57,359.479 168.5,361C 164.848,361.499 161.182,361.665 157.5,361.5C 156.119,352.063 157.953,343.396 163,335.5C 165.436,332.553 168.269,330.22 171.5,328.5 Z"/></g>
<g><path style="opacity:1" fill="#ce9750" d="M 346.5,331.5 C 351.844,331.334 357.177,331.501 362.5,332C 385.734,337.735 397.734,352.568 398.5,376.5C 407.535,375.899 415.868,378.066 423.5,383C 440.339,396.543 446.672,414.043 442.5,435.5C 448.555,435.338 454.555,435.838 460.5,437C 479.534,442.199 491.2,454.365 495.5,473.5C 495.5,476.167 495.5,478.833 495.5,481.5C 485.5,481.5 475.5,481.5 465.5,481.5C 465.5,476.167 465.5,470.833 465.5,465.5C 460.305,465.179 455.305,465.513 450.5,466.5C 449.513,471.305 449.179,476.305 449.5,481.5C 422.5,481.5 395.5,481.5 368.5,481.5C 368.813,477.958 368.479,474.625 367.5,471.5C 366.955,466.391 365.788,461.391 364,456.5C 355.328,436.416 340.162,424.916 318.5,422C 304.837,421.5 291.171,421.333 277.5,421.5C 277.333,435.171 277.5,448.837 278,462.5C 279.373,468.998 281.207,475.332 283.5,481.5C 274.5,481.5 265.5,481.5 256.5,481.5C 256.821,476.305 256.487,471.305 255.5,466.5C 250.5,466.5 245.5,466.5 240.5,466.5C 240.5,471.5 240.5,476.5 240.5,481.5C 234.833,481.5 229.167,481.5 223.5,481.5C 225.17,459.842 235.836,444.508 255.5,435.5C 259.492,434.503 263.492,433.503 267.5,432.5C 268.613,397.389 286.613,378.055 321.5,374.5C 322.431,362.308 326.931,351.641 335,342.5C 338.887,338.686 342.72,335.02 346.5,331.5 Z"/></g>
<g><path style="opacity:1" fill="#af8045" d="M 346.5,331.5 C 342.72,335.02 338.887,338.686 335,342.5C 326.931,351.641 322.431,362.308 321.5,374.5C 286.613,378.055 268.613,397.389 267.5,432.5C 263.492,433.503 259.492,434.503 255.5,435.5C 254.436,427.869 254.269,420.202 255,412.5C 262.522,386.819 279.689,374.486 306.5,375.5C 306.392,371.753 306.892,368.086 308,364.5C 314.237,345.761 327.07,334.761 346.5,331.5 Z"/></g>
<g><path style="opacity:1" fill="#b7de29" d="M 476.5,344.5 C 467.281,354.107 455.947,359.441 442.5,360.5C 436.642,360.822 430.975,360.489 425.5,359.5C 429.833,354.5 434.5,349.833 439.5,345.5C 451.742,346.957 464.075,346.624 476.5,344.5 Z"/></g>
<g><path style="opacity:1" fill="#6a8118" d="M 141.5,347.5 C 142.486,351.97 142.819,356.637 142.5,361.5C 138.298,361.817 134.298,361.483 130.5,360.5C 134.167,360.5 137.833,360.5 141.5,360.5C 141.5,356.167 141.5,351.833 141.5,347.5 Z"/></g>
<g><path style="opacity:1" fill="#677d17" d="M 425.5,359.5 C 430.975,360.489 436.642,360.822 442.5,360.5C 436.654,361.817 430.654,361.817 424.5,360.5C 424.624,359.893 424.957,359.56 425.5,359.5 Z"/></g>
<g><path style="opacity:1" fill="#070402" d="M 322.5,390.5 C 327.5,390.5 332.5,390.5 337.5,390.5C 337.5,395.5 337.5,400.5 337.5,405.5C 332.5,405.5 327.5,405.5 322.5,405.5C 322.5,400.5 322.5,395.5 322.5,390.5 Z"/></g>
<g><path style="opacity:1" fill="#040201" d="M 383.5,398.5 C 405.674,397.499 414.84,407.833 411,429.5C 404.077,441.589 393.911,445.423 380.5,441C 367.554,432.383 364.721,421.217 372,407.5C 375.161,403.491 378.994,400.491 383.5,398.5 Z"/></g>
<g><path style="opacity:1" fill="#d1350d" d="M 386.5,413.5 C 395.33,412.162 398.83,415.829 397,424.5C 390.325,430.429 385.492,429.095 382.5,420.5C 383.071,417.687 384.404,415.354 386.5,413.5 Z"/></g>
<g><path style="opacity:1" fill="#b18145" d="M 255.5,435.5 C 235.836,444.508 225.17,459.842 223.5,481.5C 229.167,481.5 234.833,481.5 240.5,481.5C 245.5,481.5 250.5,481.5 255.5,481.5C 255.5,476.5 255.5,471.5 255.5,466.5C 256.487,471.305 256.821,476.305 256.5,481.5C 265.5,481.5 274.5,481.5 283.5,481.5C 286.535,486.717 290.202,491.55 294.5,496C 266.169,496.5 237.835,496.667 209.5,496.5C 209.334,488.16 209.5,479.827 210,471.5C 217.076,449.255 232.243,437.255 255.5,435.5 Z"/></g>
<g><path style="opacity:1" fill="#c6f12f" d="M 307.5,436.5 C 307.101,446.898 307.601,457.232 309,467.5C 312.641,474.981 318.474,479.647 326.5,481.5C 331.631,486.13 336.631,490.963 341.5,496C 315.93,498.307 299.763,487.141 293,462.5C 292.5,453.84 292.334,445.173 292.5,436.5C 297.5,436.5 302.5,436.5 307.5,436.5 Z"/></g>
<g><path style="opacity:1" fill="#dcf681" d="M 307.5,436.5 C 330.167,435.584 345,445.917 352,467.5C 352.83,473.196 352.663,478.863 351.5,484.5C 341.514,475.014 331.681,465.348 322,455.5C 318.5,459 315,462.5 311.5,466C 316.703,471.035 321.703,476.202 326.5,481.5C 318.474,479.647 312.641,474.981 309,467.5C 307.601,457.232 307.101,446.898 307.5,436.5 Z"/></g>
<g><path style="opacity:1" fill="#090603" d="M 255.5,466.5 C 255.5,471.5 255.5,476.5 255.5,481.5C 250.5,481.5 245.5,481.5 240.5,481.5C 240.5,476.5 240.5,471.5 240.5,466.5C 245.5,466.5 250.5,466.5 255.5,466.5 Z"/></g>
<g><path style="opacity:1" fill="#000000" d="M 450.5,466.5 C 455.167,466.5 459.833,466.5 464.5,466.5C 464.5,471.167 464.5,475.833 464.5,480.5C 459.833,480.5 455.167,480.5 450.5,480.5C 450.5,475.833 450.5,471.167 450.5,466.5 Z"/></g>
<g><path style="opacity:1" fill="#553e20" d="M 450.5,466.5 C 455.305,465.513 460.305,465.179 465.5,465.5C 465.5,470.833 465.5,476.167 465.5,481.5C 460.305,481.821 455.305,481.487 450.5,480.5C 455.167,480.5 459.833,480.5 464.5,480.5C 464.5,475.833 464.5,471.167 464.5,466.5C 459.833,466.5 455.167,466.5 450.5,466.5 Z"/></g>
<g><path style="opacity:0.991" fill="#b18145" d="M 450.5,466.5 C 450.5,471.167 450.5,475.833 450.5,480.5C 455.305,481.487 460.305,481.821 465.5,481.5C 475.5,481.5 485.5,481.5 495.5,481.5C 495.5,478.833 495.5,476.167 495.5,473.5C 496.492,480.982 496.825,488.648 496.5,496.5C 486.167,496.5 475.833,496.5 465.5,496.5C 465.81,499.713 465.477,502.713 464.5,505.5C 459.833,505.5 455.167,505.5 450.5,505.5C 450.5,502.5 450.5,499.5 450.5,496.5C 445.5,496.5 440.5,496.5 435.5,496.5C 435.81,499.713 435.477,502.713 434.5,505.5C 429.833,505.5 425.167,505.5 420.5,505.5C 420.5,502.5 420.5,499.5 420.5,496.5C 402.833,496.5 385.167,496.5 367.5,496.5C 367.5,488.167 367.5,479.833 367.5,471.5C 368.479,474.625 368.813,477.958 368.5,481.5C 395.5,481.5 422.5,481.5 449.5,481.5C 449.179,476.305 449.513,471.305 450.5,466.5 Z"/></g>
<g><path style="opacity:0.973" fill="#000000" d="M 450.5,505.5 C 450.5,507.5 450.5,509.5 450.5,511.5C 445.167,511.5 439.833,511.5 434.5,511.5C 434.5,509.5 434.5,507.5 434.5,505.5C 435.477,502.713 435.81,499.713 435.5,496.5C 440.5,496.5 445.5,496.5 450.5,496.5C 450.5,499.5 450.5,502.5 450.5,505.5 Z"/></g>
</svg>
