<?xml version="1.0" standalone="no"?>
<!DOCTYPE svg PUBLIC "-//W3C//DTD SVG 20010904//EN"
 "http://www.w3.org/TR/2001/REC-SVG-20010904/DTD/svg10.dtd">
<svg version="1.0" xmlns="http://www.w3.org/2000/svg"
 width="512.000000pt" height="512.000000pt" viewBox="0 0 512.000000 512.000000"
 preserveAspectRatio="xMidYMid meet">

<g transform="translate(0.000000,512.000000) scale(0.100000,-0.100000)"
fill="#000000" stroke="none">
<path d="M2515 5071 c-45 -20 -70 -60 -70 -112 0 -41 5 -53 32 -80 27 -28 40
-33 90 -36 322 -20 483 -47 692 -115 527 -171 962 -516 1252 -993 92 -151 150
-277 209 -456 290 -865 36 -1818 -648 -2424 l-107 -95 -5 125 -5 125 -33 32
c-28 28 -39 33 -82 33 -43 0 -54 -5 -82 -33 l-33 -32 0 -250 0 -250 30 -29
c21 -21 95 -55 250 -116 245 -97 265 -100 320 -45 25 26 30 38 30 80 0 67 -31
98 -141 140 -46 18 -84 36 -84 40 0 4 42 43 93 88 449 386 752 958 838 1582
18 124 18 496 0 620 -79 571 -327 1077 -720 1471 -387 387 -888 637 -1433 714
-130 18 -367 28 -393 16z"/>
<path d="M835 4830 c-74 -30 -96 -132 -41 -189 16 -17 45 -36 65 -42 20 -7 60
-22 89 -35 l54 -24 -64 -51 c-89 -74 -261 -249 -341 -349 -290 -362 -472 -792
-538 -1270 -18 -124 -18 -496 0 -620 40 -291 122 -558 247 -809 131 -262 274
-463 473 -661 204 -203 403 -345 666 -475 339 -168 681 -254 1022 -258 l142
-2 33 33 c28 28 33 39 33 82 0 42 -5 54 -32 81 -27 28 -40 33 -90 36 -330 21
-488 48 -718 124 -514 172 -953 525 -1233 994 -88 148 -144 270 -202 445 -300
890 -21 1868 708 2478 l50 42 4 -125 3 -125 33 -32 c28 -28 39 -33 82 -33 43
0 54 5 82 33 l33 32 0 250 0 250 -30 29 c-21 21 -94 55 -246 115 -212 85 -244
93 -284 76z"/>
<path d="M2115 4670 c-44 -18 -70 -59 -70 -110 0 -60 24 -89 110 -130 80 -38
150 -101 180 -161 31 -60 31 -77 3 -83 -221 -42 -346 -80 -493 -151 -120 -57
-283 -166 -369 -247 -58 -54 -68 -69 -73 -104 -9 -70 45 -134 114 -134 72 0
151 -105 138 -184 -4 -23 -7 -63 -8 -89 -2 -44 2 -52 35 -83 30 -27 46 -34 79
-34 35 0 47 6 78 38 20 20 45 50 57 66 l20 30 46 -90 c217 -421 207 -925 -25
-1333 l-42 -74 -97 7 c-116 8 -137 0 -187 -69 -18 -25 -71 -86 -116 -135 -122
-131 -125 -172 -17 -271 274 -251 692 -409 1082 -409 391 0 808 158 1082 409
105 97 104 143 -6 260 -39 42 -93 102 -119 133 -67 80 -103 90 -185 53 -33
-15 -65 -24 -71 -20 -6 3 -27 31 -46 61 -85 132 -149 294 -187 467 -31 146
-31 408 0 554 26 121 72 254 118 343 49 96 45 93 83 74 77 -38 155 11 171 110
11 66 36 111 86 155 30 27 42 31 94 31 55 0 64 3 98 34 34 31 37 39 37 86 0
52 -1 53 -67 115 -238 221 -580 370 -928 406 -115 12 -120 14 -120 35 0 36
-44 147 -80 204 -48 76 -143 155 -243 206 -88 43 -122 51 -162 34z m727 -740
c130 -27 253 -71 368 -131 148 -78 142 -67 76 -140 -31 -34 -56 -66 -56 -69 0
-4 -33 10 -73 31 -120 63 -262 85 -377 58 -67 -15 -162 -65 -208 -109 l-40
-39 -59 24 c-189 77 -397 84 -554 20 l-59 -24 -16 31 c-9 17 -34 50 -56 74
-48 52 -52 45 69 114 149 86 320 146 498 175 124 20 358 13 487 -15z m130
-490 l36 -10 -44 -78 c-58 -101 -120 -261 -154 -397 -93 -367 -51 -768 116
-1109 24 -50 42 -92 40 -94 -6 -5 -86 37 -121 64 -46 35 -74 37 -156 14 -144
-40 -349 -35 -460 13 l-27 12 33 81 c42 101 79 226 102 347 27 143 24 427 -6
577 -29 148 -80 301 -141 424 l-48 99 66 -6 c87 -9 182 -41 240 -83 116 -84
163 -72 253 64 51 75 167 111 271 82z m-747 -1846 c138 -35 282 -42 414 -20
l103 18 57 -30 c107 -57 192 -77 326 -76 92 0 134 5 182 21 l62 21 26 -33 c14
-19 25 -36 25 -39 0 -9 -165 -114 -235 -149 -97 -48 -227 -93 -348 -119 -146
-31 -408 -31 -554 0 -132 29 -258 73 -361 127 -82 44 -222 133 -222 142 0 3
18 27 40 53 l39 47 93 6 c58 3 121 15 168 30 41 14 77 25 80 26 3 1 50 -11
105 -25z"/>
</g>
</svg>
